<svg id="icons" xmlns="http://www.w3.org/2000/svg" xmlns:xlink="http://www.w3.org/1999/xlink"
    width="800" height="610" viewBox="0 0 800 610">
    <defs>
        <style>
            .cls-1{fill:#201f2d;}.cls-18,.cls-2,.cls-4,.cls-7{fill:#ffedd2;}.cls-3{fill:#ffc85a;}.cls-4{opacity:0.7;}.cls-5{fill:#f99d23;}.cls-6{fill:#c62606;}.cls-7{stroke:#201f2d;stroke-miterlimit:10;stroke-width:2px;}.cls-8{fill:#ffce61;}.cls-9{fill:#8c8b94;}.cls-10{fill:#5a5966;}.cls-11{fill:#36353d;}.cls-12{fill:#fff;opacity:0.3;}.cls-13{fill:#fc5d42;}.cls-14{fill:#8c1703;}.cls-15{fill:#ffd469;}.cls-16{opacity:0.4;fill:url(#linear-gradient);}.cls-17{fill:url(#linear-gradient-2);}.cls-18{opacity:0.6;}.cls-19{fill:#6f6e7a;}.cls-20{opacity:0.2;}</style>
        <linearGradient id="linear-gradient" x1="661.01" y1="78.18" x2="726.41" y2="111.5"
            gradientUnits="userSpaceOnUse">
            <stop offset="0" stop-color="#f99d23" />
            <stop offset="0.59" stop-color="#f99d23" />
            <stop offset="0.9" stop-color="#201f2d" />
        </linearGradient>
        <linearGradient id="linear-gradient-2" x1="621.48" y1="85.44" x2="703.35" y2="127.15"
            gradientUnits="userSpaceOnUse">
            <stop offset="0" stop-color="#f99d23" />
            <stop offset="0.72" stop-color="#f99d23" />
            <stop offset="1" stop-color="#201f2d" />
        </linearGradient>
    </defs>
    <title>harry_potter_icons_svg</title>
    <g id="bg">
        <rect class="cls-1" width="800" height="610" />
    </g>
    <g id="set">
        <g id="_10" data-name="10">
            <path class="cls-2"
                d="M195,495a79.53,79.53,0,0,1-70,79c-0.33,0-.67.09-1,0.12l-1,.1c-2.3.22-4.64,0.33-7,.34h-1c-0.34,0-.67,0-1,0-2.36,0-4.7-.18-7-0.43-0.33,0-.67-0.07-1-0.12s-0.67-.07-1-0.12A79.54,79.54,0,1,1,195,495Z" />
            <path class="cls-3"
                d="M153,509c0,5.52-2.69,10-6,10-2,0-3.7-1.58-4.79-4h-15a11,11,0,0,1-3.24,4.47V528l-9,7-4-3.11L106,528v-8.53a11,11,0,0,1-3.24-4.47h-15a8,8,0,0,1-2.3,3.08l-0.29.21-0.29.18-0.31.16-0.31.13-0.31.1a3.62,3.62,0,0,1-1,.14c-3.31,0-6-4.48-6-10s2.69-10,6-10a3.62,3.62,0,0,1,1,.14l0.31,0.1,0.31,0.13,0.31,0.16,0.29,0.18,0.29,0.21a8,8,0,0,1,2.3,3.08h15a11.12,11.12,0,0,1,3.24-4.49V447.89c-3-1.65-5-4.12-5-6.89,0-3.78,3.62-7,8.76-8.34a2.86,2.86,0,0,1-.76-1.87c0-2.13,2.69-3.86,6-3.86a8.72,8.72,0,0,1,1.46.12l0.45,0.08c0.2,0,.4.09,0.59,0.15,2.06,0.61,3.5,2,3.5,3.51a2.86,2.86,0,0,1-.76,1.87C125.38,434,129,437.22,129,441c0,2.77-2,5.24-5,6.89v50.62a11.12,11.12,0,0,1,3.24,4.49h15c1.09-2.42,2.83-4,4.79-4C150.31,499,153,503.48,153,509Z" />
            <path class="cls-4"
                d="M107.76,515h-5a11,11,0,0,0,3.24,4.47V528l5,3.89V519.47A11,11,0,0,1,107.76,515ZM82,509c0-4,1.43-7.49,3.49-9.08l-0.29-.21-0.29-.18-0.31-.16-0.31-.13-0.31-.1a3.62,3.62,0,0,0-1-.14c-3.31,0-6,4.48-6,10s2.69,10,6,10a3.62,3.62,0,0,0,1-.14l0.31-.1,0.31-.13,0.31-.16,0.29-.18,0.29-.21C83.43,516.49,82,513,82,509Zm35.5-81.72c-0.19-.06-0.39-0.1-0.59-0.15l-0.45-.08a8.72,8.72,0,0,0-1.46-.12c-3.31,0-6,1.73-6,3.86a2.86,2.86,0,0,0,.76,1.87C104.62,434,101,437.22,101,441c0,2.77,2,5.24,5,6.89v50.62a11.12,11.12,0,0,0-3.24,4.49h5a11.12,11.12,0,0,1,3.24-4.49V447.89c-3-1.65-5-4.12-5-6.89,0-3.78,3.62-7,8.76-8.34a2.86,2.86,0,0,1-.76-1.87C114,429.23,115.44,427.89,117.5,427.28Z" />
            <rect class="cls-5" x="106" y="500" width="18" height="18" rx="8" ry="8" />
            <path class="cls-6"
                d="M85,509c0,2.21-.9,4-2,4s-2-1.79-2-4,0.9-4,2-4S85,506.79,85,509Zm60,0c0,2.21.9,4,2,4s2-1.79,2-4-0.9-4-2-4S145,506.79,145,509Zm-30-79a2,2,0,1,0,2,2A2,2,0,0,0,115,430Zm0,7c-3.87,0-7,1.79-7,4s3.13,4,7,4,7-1.79,7-4S118.87,437,115,437Zm0,68a4,4,0,1,0,4,4A4,4,0,0,0,115,505Z" />
            <path class="cls-1"
                d="M115.5,414.49A80.53,80.53,0,1,0,196,495,80.61,80.61,0,0,0,115.5,414.49Zm-1.5,159c-2.36,0-4.7-.18-7-0.43V530l7,5.44v38Zm9-.33q-3.46.33-7,.35V535.49l7-5.44v43.15Zm-8-39.46-8-6.22V524h16v3.51Zm-8.36-15a10.06,10.06,0,0,1-2.95-4.07,1,1,0,0,0-.93-0.64H92V504h10.76a1,1,0,0,0,.93-0.64,10,10,0,0,1,2.94-4.08,1,1,0,0,0,.36-0.77V495h16v3.51a1,1,0,0,0,.36.77,10,10,0,0,1,2.94,4.08,1,1,0,0,0,.93.64H138v10H127.24a1,1,0,0,0-.93.64,10.06,10.06,0,0,1-2.95,4.07,1,1,0,0,0-.36.77V522H107v-2.53A1,1,0,0,0,106.64,518.7Zm3.88-86.7a1.86,1.86,0,0,1-.51-1.22c0-1.55,2.29-2.86,5-2.86s5,1.31,5,2.86a1.86,1.86,0,0,1-.51,1.22,1,1,0,0,0,.5,1.62c4.79,1.25,8,4.21,8,7.37,0,2.28-1.63,4.47-4.48,6a1,1,0,0,0-.52.88V450H107v-2.11a1,1,0,0,0-.52-0.88c-2.84-1.54-4.48-3.73-4.48-6,0-3.17,3.22-6.13,8-7.37A1,1,0,0,0,110.51,432Zm-2.59,45.92L123,467.87V486.3ZM123,488.59V493H107V479.7Zm-16-12.46V458.62l15,7.51Zm0-19.75V452h16v12.38ZM125,573V524h1a1,1,0,0,0,0-2h-1v-2.07a12.07,12.07,0,0,0,2.9-3.93H138v1a1,1,0,0,0,2,0v-1h1.58c1.32,2.55,3.27,4,5.42,4,3.92,0,7-4.83,7-11s-3.08-11-7-11c-2.15,0-4.1,1.45-5.42,4H140v-1a1,1,0,0,0-2,0v1H127.9a12,12,0,0,0-2.9-3.94V495h1a1,1,0,0,0,0-2h-1V452h1a1,1,0,0,0,0-2h-1v-1.53c3.19-1.89,5-4.59,5-7.47,0-3.84-3.19-7.26-8.24-8.93a3.55,3.55,0,0,0,.24-1.28c0-2.72-3.08-4.86-7-4.86s-7,2.13-7,4.86a3.55,3.55,0,0,0,.24,1.28c-5,1.68-8.24,5.09-8.24,8.93,0,2.88,1.81,5.58,5,7.47V450h-1a1,1,0,0,0,0,2h1v41h-1a1,1,0,0,0,0,2h1v3.06a12,12,0,0,0-2.9,3.94H92v-1a1,1,0,0,0-2,0v1H88.42c-1.32-2.55-3.27-4-5.42-4-3.92,0-7,4.83-7,11s3.08,11,7,11c2.15,0,4.1-1.45,5.42-4H90v1a1,1,0,0,0,2,0v-1h10.1a12.07,12.07,0,0,0,2.9,3.93V522h-1a1,1,0,0,0,0,2h1v48.84A78.5,78.5,0,1,1,125,573Zm15-59V504h2.21a1,1,0,0,0,.91-0.59c1-2.14,2.42-3.41,3.88-3.41,2.71,0,5,4.12,5,9s-2.29,9-5,9c-1.47,0-2.92-1.28-3.88-3.41a1,1,0,0,0-.91-0.59H140ZM90,504v10H87.79a1,1,0,0,0-.91.59c-1,2.14-2.42,3.41-3.88,3.41-2.71,0-5-4.12-5-9s2.29-9,5-9c1.47,0,2.92,1.28,3.88,3.41a1,1,0,0,0,.91.59H90Zm24,15h2a9,9,0,0,0,9-9v-2a9,9,0,0,0-9-9h-2a9,9,0,0,0-9,9v2A9,9,0,0,0,114,519Zm-7-11a7,7,0,0,1,7-7h2a7,7,0,0,1,7,7v2a7,7,0,0,1-7,7h-2a7,7,0,0,1-7-7v-2Z" />
        </g>
        <g id="_9" data-name="9">
            <path class="cls-7"
                d="M765,495a79.56,79.56,0,0,1-53,75l-1,.35-1,.32a0.81,0.81,0,0,1-.25.08c-0.65.22-1.31,0.42-2,.61a79.88,79.88,0,0,1-47.78-1l-1-.35c-0.34-.11-0.67-0.23-1-0.36a77.14,77.14,0,0,1-11-5c-0.67-.36-1.34-0.75-2-1.15A79.53,79.53,0,1,1,765,495Z" />
            <path class="cls-8"
                d="M733,505v18a21,21,0,0,0-3.09.37,22.19,22.19,0,0,0-2.3.6A21,21,0,0,0,713,543H689a12,12,0,1,1,0-24h17.5a2.5,2.5,0,0,0,2.5-2.5V494h8a4.19,4.19,0,0,0,0,.5v3a7.48,7.48,0,0,0,3.78,6.5,7.31,7.31,0,0,0,3.72,1H733Z" />
            <path class="cls-9"
                d="M689,543h22v27.38l-1,.32a0.81,0.81,0,0,1-.25.08c-0.65.22-1.31,0.42-2,.61a79.88,79.88,0,0,1-47.78-1l-1-.35V505.62a7.06,7.06,0,0,1-.18-0.84,15.16,15.16,0,0,1-9.87-6.35c-2.87-4-3.77-8.62-2.75-12.32,3.84,0.18,8,2.49,10.85,6.46a16.65,16.65,0,0,1,2.87,6.47c0.08-.14.14-0.28,0.22-0.42a8.9,8.9,0,0,1,6.14-4.44,8.9,8.9,0,0,1-1,7.51,9.6,9.6,0,0,1-4.13,3.82c0.24,0.16.47,0.33,0.73,0.49,5.87,3.68,14.49,6,24.11,6,9,0,17.19-2.06,23-5.35v9.85a2.5,2.5,0,0,1-2.5,2.5H689A12,12,0,0,0,689,543Zm68.85-62.35a33.3,33.3,0,0,0-11-22.77l-1.52-1.36a18.78,18.78,0,0,0-15.6-4.52H730l-2.41,1.47L723.43,456a15.83,15.83,0,0,0-7.48,11.72,24.74,24.74,0,0,1-1.14,5.13c-0.12.38-.26,0.75-0.41,1.13l2.79,3.81a8.55,8.55,0,0,0,9.85,3l2.9-1.06a28.29,28.29,0,0,1,20.06.18l8,3.11Zm-105-2.84L655.6,474c-0.15-.38-0.29-0.75-0.41-1.13a24.74,24.74,0,0,1-1.14-5.13A15.83,15.83,0,0,0,646.57,456l-4.16-2.55L640,452h0.31a18.78,18.78,0,0,0-15.6,4.52l-1.52,1.36a33.3,33.3,0,0,0-11,22.77L612,483l8-3.11a28.29,28.29,0,0,1,20.06-.18l2.9,1.06A8.55,8.55,0,0,0,652.81,477.81Zm19-13.13a4.54,4.54,0,0,0,3.75-5.07l-9,.62a4.17,4.17,0,0,0,.06.71A4.55,4.55,0,0,0,671.83,464.68Zm26.33,0a4.55,4.55,0,0,0,5.23-3.74,4.17,4.17,0,0,0,.06-0.71l-9-.62A4.54,4.54,0,0,0,698.17,464.68Z" />
            <path class="cls-5"
                d="M733,523v10.35a9.62,9.62,0,0,1-9.62,9.62H713A21,21,0,0,1,733,523Zm-44-4a12,12,0,0,0,0,24h2V519h-2Z" />
            <path class="cls-4"
                d="M683,531a6,6,0,0,1,6-6h17.5a8.51,8.51,0,0,0,8.5-8.5V494h-6v22.5a2.5,2.5,0,0,1-2.5,2.5H689a12,12,0,0,0-6,22.38V531Z" />
            <path class="cls-1"
                d="M658.36,464.79a1,1,0,0,0,.77-0.36,23.85,23.85,0,0,1,2-2.09,10.25,10.25,0,0,0-.3,1.48,0.87,0.87,0,0,0,.12.6l0,0a1,1,0,0,0,0,.1,10.2,10.2,0,0,0,9.14,5.66,10.45,10.45,0,0,0,1.71-.14,10.26,10.26,0,0,0,8.41-8.34,1,1,0,0,0,0-.29v0a1,1,0,0,0-.09-0.28l0-.08a1,1,0,0,0-.23-0.26h0a13.29,13.29,0,0,0-10.24-2.56h-0.05a13.44,13.44,0,0,0-1.33.3l-0.46.15c-0.29.09-.59,0.19-0.87,0.3l-0.51.22c-0.26.12-.51,0.24-0.76,0.37l-0.5.28c-0.25.14-.48,0.3-0.72,0.45l-0.3.19a8.23,8.23,0,0,1,.86-1.08,23.91,23.91,0,0,1,8.53-3.21l0.34-.06a5.89,5.89,0,0,0,4.24-3.09l1.18-2.28a1,1,0,1,0-1.78-.92l-1.18,2.28a3.89,3.89,0,0,1-2.8,2l-0.34.06a25.89,25.89,0,0,0-9.17,3.43,1,1,0,0,0-.29.19,25.89,25.89,0,0,0-6.15,5.32A1,1,0,0,0,658.36,464.79ZM669,460.4c0.32-.08.65-0.15,1-0.21H670V462h2v-2h0.23l0.45,0,0.66,0.06,0.47,0.08,0.62,0.12,0.19,0.05a3.51,3.51,0,0,1-2.94,3.32,3.55,3.55,0,0,1-4.05-2.83A11.23,11.23,0,0,1,669,460.4Zm-3.16,1.39a5.54,5.54,0,0,0,5.28,3.95,5.6,5.6,0,0,0,.91-0.08,5.49,5.49,0,0,0,4.53-4.61l0.42,0.21,0.54,0.3,0.43,0.26,0.24,0.17a8.25,8.25,0,0,1-15.07,2.2A11.15,11.15,0,0,1,665.8,461.79Zm32.33,8.27a10.43,10.43,0,0,0,1.71.14,10.2,10.2,0,0,0,9.14-5.66l0-.05,0,0a1,1,0,0,0,.14-0.64,10.25,10.25,0,0,0-.3-1.5,23.84,23.84,0,0,1,2,2.1,1,1,0,0,0,1.53-1.28,25.89,25.89,0,0,0-6.27-5.4,1,1,0,0,0-.16-0.1,25.89,25.89,0,0,0-9.18-3.44l-0.34-.06a3.89,3.89,0,0,1-2.8-2l-1.18-2.28a1,1,0,1,0-1.78.92l1.18,2.28a5.89,5.89,0,0,0,4.24,3.09l0.34,0.06A23.9,23.9,0,0,1,705,459.4a8.22,8.22,0,0,1,.86,1.08l-0.3-.19c-0.24-.16-0.47-0.31-0.72-0.45l-0.5-.28c-0.25-.13-0.5-0.25-0.75-0.36l-0.53-.23c-0.27-.11-0.55-0.2-0.83-0.29l-0.5-.16c-0.39-.11-0.78-0.19-1.18-0.27l-0.19,0a13.28,13.28,0,0,0-10.24,2.55l0,0a1,1,0,0,0-.2.23l-0.05.1a1,1,0,0,0-.09.26s0,0,0,.06a1,1,0,0,0,0,.29A10.26,10.26,0,0,0,698.13,470.07ZM698,460v2h2v-1.82h0a11.31,11.31,0,0,1,2.37.68,3.56,3.56,0,0,1-4.05,2.83,3.51,3.51,0,0,1-2.94-3.32A11.07,11.07,0,0,1,698,460Zm-6.11,1.91c0.27-.18.55-0.35,0.83-0.51l0.07,0c0.22-.12.45-0.23,0.68-0.34a5.49,5.49,0,0,0,4.53,4.61,5.6,5.6,0,0,0,.91.08,5.55,5.55,0,0,0,5.28-3.95,11.16,11.16,0,0,1,2.7,2.4A8.25,8.25,0,0,1,691.82,462Zm-6.39-47.45A80.53,80.53,0,1,0,766,495,80.61,80.61,0,0,0,685.5,414.49ZM658,568.57a78.13,78.13,0,0,1-11-5.15V515a9,9,0,0,1,9-9h2v62.57Zm-0.28-65a14.61,14.61,0,0,1-8-5.72A14.11,14.11,0,0,1,647,487.18a14.1,14.1,0,0,1,9.26,6,15.8,15.8,0,0,1,2.63,5.73A10.58,10.58,0,0,0,657.72,503.56ZM710,569.62a78.17,78.17,0,0,1-50-.34V507a8.14,8.14,0,0,0,1.05-.32c6.26,4,15.24,6.35,24.95,6.35,8.23,0,16-1.7,22-4.71v8.21a1.5,1.5,0,0,1-1.5,1.5H689a13,13,0,0,0,0,26h21v25.62Zm-61.63-109.1a1,1,0,0,0-1.39.24l-3.57,5.06a2.65,2.65,0,0,0,2.9,4.07,6.48,6.48,0,0,1,3.82.06l3.51,1.15a26,26,0,0,0,.83,2.74L652,477.22a7.6,7.6,0,0,1-8.7,2.62l-2.89-1.07a29.26,29.26,0,0,0-20.77.19l-6.54,2.54,0-.79a32.14,32.14,0,0,1,10.72-22.08l1.52-1.37a17.64,17.64,0,0,1,14.18-4.36l6.49,4a14.74,14.74,0,0,1,4.74,4.63,14.9,14.9,0,0,1,2.26,6.35c0,0.34.1,0.67,0.15,1l-2.45-.8a8.43,8.43,0,0,0-5-.08,0.65,0.65,0,0,1-.71-1l3.57-5.06A1,1,0,0,0,648.37,460.52Zm4.1-.11a16.73,16.73,0,0,0-5.38-5.25L643.55,453h5.36a22.09,22.09,0,0,0,6.34-.93,14.24,14.24,0,0,0,7.14-4.85,22.11,22.11,0,0,1,10.72-7.42l2.41-.76a31.25,31.25,0,0,1,18.94,0l2.41,0.76a22.1,22.1,0,0,1,10.73,7.42,14.24,14.24,0,0,0,7.14,4.85,22.11,22.11,0,0,0,6.35.93h5.36l-3.54,2.17a16.73,16.73,0,0,0-5.38,5.25,16.92,16.92,0,0,0-2.57,7.21A24.84,24.84,0,0,1,709,481l-11,12.84A14.68,14.68,0,0,1,686.88,499h-3.76a14.68,14.68,0,0,1-11.18-5.15L661,481A24.84,24.84,0,0,1,655,467.63,16.92,16.92,0,0,0,652.47,460.42Zm74.12,5.41L723,460.77a1,1,0,0,0-1.63,1.15L725,467a0.65,0.65,0,0,1-.71,1,8.42,8.42,0,0,0-5,.08l-2.45.8c0.05-.33.11-0.67,0.15-1a14.82,14.82,0,0,1,7-11l6.5-4a17.78,17.78,0,0,1,14.17,4.36l1.52,1.37a32.14,32.14,0,0,1,10.72,22.08l0,0.79L750.36,479a29.28,29.28,0,0,0-20.77-.19l-2.89,1.07a7.6,7.6,0,0,1-8.7-2.62l-2.47-3.37a26,26,0,0,0,.83-2.74l3.51-1.15a6.48,6.48,0,0,1,3.82-.06A2.65,2.65,0,0,0,726.59,465.83ZM674,501.75v-3.48a16.67,16.67,0,0,0,9.12,2.73h3.76a16.67,16.67,0,0,0,9.12-2.73v3.48a4.26,4.26,0,0,0,4.25,4.25H708v0.05c-5.82,3.16-13.66,4.95-22,4.95s-16.32-1.83-22.13-5h5.88A4.26,4.26,0,0,0,674,501.75ZM716,498h-6v-3h6v2.5C716,497.67,716,497.83,716,498Zm-6,18.5V500h6.38a8.51,8.51,0,0,0,8.12,6H732v16.1l-0.51.07c-0.37,0-.74.09-1.1,0.15l-0.92.17c-0.35.07-.7,0.15-1,0.23l-0.91.26c-0.33.1-.66,0.2-1,0.31s-0.6.23-.9,0.35-0.61.24-.91,0.38-0.6.3-.89,0.45-0.56.28-.84,0.44-0.59.37-.89,0.55-0.5.31-.75,0.48-0.61.46-.91,0.69-0.42.31-.62,0.48c-0.4.34-.79,0.7-1.16,1.06l-0.48.48c-0.37.38-.73,0.76-1.06,1.17-0.17.2-.32,0.42-0.48,0.62s-0.47.6-.69,0.91-0.32.5-.48,0.75-0.38.58-.55,0.89-0.29.56-.44,0.84-0.31.59-.45,0.89-0.26.61-.38,0.91-0.24.6-.35,0.9-0.21.65-.31,1-0.18.6-.26,0.91-0.16.69-.23,1-0.12.61-.17,0.92-0.1.73-.15,1.1c0,0.17-.05.34-0.07,0.51H692V520h14.5A3.5,3.5,0,0,0,710,516.5Zm8-19v-3a6.51,6.51,0,0,1,6.5-6.5h9a6.51,6.51,0,0,1,6.5,6.5v3a6.51,6.51,0,0,1-6.5,6.5h-9A6.51,6.51,0,0,1,718,497.5Zm14,26.63v9.25a8.63,8.63,0,0,1-8.62,8.62h-9.25c0-.16,0-0.32,0-0.48s0.07-.52.11-0.78,0.12-.69.2-1,0.11-.51.18-0.76,0.18-.66.29-1,0.15-.49.24-0.74,0.24-.63.37-0.94,0.19-.48.3-0.71,0.29-.6.45-0.89,0.23-.46.36-0.68,0.35-.57.53-0.85,0.27-.43.41-0.64,0.42-.56.63-0.83,0.28-.38.43-0.56c0.28-.34.59-0.66,0.89-1l0.58-.58c0.32-.3.64-0.61,1-0.89,0.18-.15.37-0.29,0.56-0.43s0.54-.43.83-0.63,0.42-.27.64-0.41,0.56-.36.85-0.53l0.68-.36c0.29-.15.59-0.31,0.89-0.45l0.71-.3c0.31-.13.62-0.26,0.94-0.37l0.74-.24c0.33-.1.66-0.2,1-0.29l0.76-.18,1-.2,0.78-.11ZM689,542a11,11,0,1,1,0-22h1v22h-1Zm-27.18-38H661a14.06,14.06,0,0,0-.06-4.79l0-.08a8.36,8.36,0,0,1,4.58-3.78,8.36,8.36,0,0,1-1.15,5.83A9.07,9.07,0,0,1,661.82,504ZM712,568.94V544h11.38A10.63,10.63,0,0,0,734,533.38V506a8.5,8.5,0,0,0,8-8.47v-3a8.51,8.51,0,0,0-8.5-8.5h-9a8.51,8.51,0,0,0-8.36,7H708v11h-7.75a2.25,2.25,0,0,1-2.25-2.25v-5a16.69,16.69,0,0,0,1.58-1.59l11-12.84a28,28,0,0,0,4.07-6.31l1.77,2.41a9.58,9.58,0,0,0,11,3.31l2.89-1.06a27.27,27.27,0,0,1,19.35.17l8,3.11a0.89,0.89,0,0,0,.36.07,1,1,0,0,0,.59-0.19,1,1,0,0,0,.41-0.87l-0.15-2.35a34.13,34.13,0,0,0-11.38-23.45l-1.52-1.37A19.75,19.75,0,0,0,729.64,451h-8.55a20.13,20.13,0,0,1-5.77-.85,12.26,12.26,0,0,1-6.14-4.17,24.1,24.1,0,0,0-11.7-8.08l-2.41-.76a33.23,33.23,0,0,0-20.14,0l-2.41.76A24.11,24.11,0,0,0,660.83,446a12.26,12.26,0,0,1-6.14,4.17,20.11,20.11,0,0,1-5.77.85h-8.55a19.75,19.75,0,0,0-16.31,4.77l-1.52,1.37a34.13,34.13,0,0,0-11.38,23.45L611,482.94a1,1,0,0,0,.41.87,1,1,0,0,0,.59.19,0.89,0.89,0,0,0,.36-0.07l8-3.11a27.27,27.27,0,0,1,19.35-.17l2.89,1.06a9.58,9.58,0,0,0,11-3.31l1.77-2.41a28,28,0,0,0,4.07,6.31l11,12.84a16.69,16.69,0,0,0,1.58,1.59v5a2.25,2.25,0,0,1-2.25,2.25h-4.92a11.5,11.5,0,0,0,1.33-1.8,9.88,9.88,0,0,0,1.07-8.38,1,1,0,0,0-1.07-.64,9.42,9.42,0,0,0-5.84,3.49,18.16,18.16,0,0,0-2.44-4.68c-3-4.1-7.31-6.66-11.61-6.86a1,1,0,0,0-1,.75c-1.15,4.15-.06,9.11,2.9,13.2a18.57,18.57,0,0,0,5.59,5.16A11,11,0,0,0,645,515v47.27A78.48,78.48,0,1,1,712,568.94Zm-38.26-46.62a1,1,0,0,1-1.48,1.35l-7.45-8.19,6.16,27.3a1,1,0,0,1-.75,1.2L670,544a1,1,0,0,1-1-.78l-7-31a0.94,0.94,0,0,1,0-.13,1,1,0,0,1,0-.2,1,1,0,0,1,0-.18,1,1,0,0,1,.07-0.18,1,1,0,0,1,.12-0.16,0.93,0.93,0,0,1,.08-0.1l0,0a1,1,0,0,1,.17-0.1,1,1,0,0,1,.18-0.08l0.05,0h0.33l0.18,0,0.18,0.07a1,1,0,0,1,.16.12,0.93,0.93,0,0,1,.11.08Zm5.1-49.86,3.72,5.84a2.89,2.89,0,0,0,4.88,0l3.72-5.84a1,1,0,0,1,1.69,1.07l-3.72,5.84a4.89,4.89,0,0,1-8.26,0l-3.72-5.84A1,1,0,1,1,678.84,472.46Zm18.08,11.1a1,1,0,0,1-.54,1.31A28.9,28.9,0,0,1,685.29,487a32.15,32.15,0,0,1-11.69-2.15,1,1,0,0,1,.79-1.84c0.1,0,10.58,4.4,21.23,0A1,1,0,0,1,696.92,483.56Z" />
        </g>
        <g id="_8" data-name="8">
            <ellipse class="cls-2" cx="495.5" cy="495.02" rx="79.5" ry="79.53" />
            <path class="cls-3"
                d="M518,470.13a8.45,8.45,0,0,1-.05.87H495a4.93,4.93,0,0,1,7.6-3.93A8,8,0,0,1,518,470.13Zm-42.69-5.64a5.25,5.25,0,0,0-5.26,5.25,4.73,4.73,0,0,0,.16,1.26H480.4a4.73,4.73,0,0,0,.16-1.26A5.25,5.25,0,0,0,475.31,464.49Z" />
            <path class="cls-10"
                d="M533.39,495a38.88,38.88,0,0,0-3.34-10,44.46,44.46,0,0,0-4.25-7H531a3,3,0,0,0,3-3v-1a3,3,0,0,0-3-3H460a3,3,0,0,0-3,3v1a3,3,0,0,0,3,3h4.2a44.92,44.92,0,0,0-4.25,7A39.07,39.07,0,0,0,456,499.62s0,0.09,0,.13L456,500.91c0,0.43,0,.87,0,1.31a39.19,39.19,0,0,0,18.4,33.23c0.16-.3.3-0.6,0.45-0.9a33.92,33.92,0,0,0,1.52-3.65A1.38,1.38,0,0,1,479,531c0.12,0.56.22,1.12,0.3,1.69a1.37,1.37,0,0,0,2.45.63c4.74-6.3,9-13.92,8.9-21.18a1.36,1.36,0,0,1,2-1.25c3.26,1.83,9.39,6.51,13,17.14a1.37,1.37,0,0,0,2.61,0,10,10,0,0,0,.34-3.09,1.37,1.37,0,0,1,2.41-.94,42.11,42.11,0,0,1,6,9.39c0.14,0.3.27,0.61,0.4,0.92a39.27,39.27,0,0,0,16.69-32.13A38.79,38.79,0,0,0,533.39,495Z" />
            <path class="cls-11"
                d="M530.05,485h-70.1a44.92,44.92,0,0,1,4.25-7h61.6A44.46,44.46,0,0,1,530.05,485Z" />
            <path class="cls-12"
                d="M534.05,502.16a39.27,39.27,0,0,1-16.69,32.13c-0.13-.31-0.26-0.62-0.4-0.92a42.11,42.11,0,0,0-6-9.39,1.37,1.37,0,0,0-2.41.94,10,10,0,0,1-.34,3.09,1.37,1.37,0,0,1-2.61,0c-3.56-10.63-9.69-15.31-13-17.14a1.36,1.36,0,0,0-2,1.25c0.12,7.26-4.16,14.88-8.9,21.18a1.37,1.37,0,0,1-2.45-.63c-0.08-.57-0.18-1.13-0.3-1.69a1.38,1.38,0,0,0-2.64-.13,33.92,33.92,0,0,1-1.52,3.65c-0.15.3-.29,0.6-0.45,0.9a39.19,39.19,0,0,1-18.4-33.23c0-.44,0-0.88,0-1.31,0-.26,0-0.52,0-0.79v-0.06a1,1,0,0,1,0-.31,0.49,0.49,0,0,1,0-.13,1,1,0,0,1,1-.58,1,1,0,0,1,.92.72,39.13,39.13,0,0,0,14.45,19.42,1,1,0,0,0,1.65-.78l0.2-3a1,1,0,0,1,1.93-.48c1.59,2.61,3.89,6.35,5.12,8.18a1,1,0,0,0,1.7,0c4.55-5.89,3.9-15,3.38-18.85a1,1,0,0,1,1.41-1.11c4.64,1.78,17.82,7.42,26.44,17.09a1,1,0,0,0,1.33.2,39.09,39.09,0,0,0,17.13-23.15c0.17-.62.32-1.24,0.45-1.87a0.91,0.91,0,0,1,.2-0.42A38.79,38.79,0,0,1,534.05,502.16Z" />
            <path class="cls-6"
                d="M507.52,564.89a1.37,1.37,0,0,1-2.1-1.51,27.83,27.83,0,0,0-2.79-21.73c-0.17-.31-0.36-0.61-0.55-0.91s-0.39-.61-0.6-0.91a26,26,0,0,0-3.69-4.28,1.38,1.38,0,0,0-2.29,1,23,23,0,0,1-.5,3.85,9.67,9.67,0,0,1-.24,1,7.36,7.36,0,0,1-.28,1,20.11,20.11,0,0,1-1.15,3,1.37,1.37,0,0,1-2.58-.39,0.42,0.42,0,0,1,0-.11,1.37,1.37,0,0,0-2.63-.27,27.22,27.22,0,0,1-3,5.73c-2.45,3.57-4.26,7.33-2.58,13.09a1.38,1.38,0,0,1-2.06,1.56c-9.26-6.09-11.66-12.12-10-20a36.1,36.1,0,0,1,3.44-8.63c0.15-.3.3-0.6,0.44-0.9s0.3-.6.45-0.9a33.92,33.92,0,0,0,1.52-3.65A1.38,1.38,0,0,1,479,531c0.12,0.56.22,1.12,0.3,1.69a1.37,1.37,0,0,0,2.45.63c4.74-6.3,9-13.92,8.9-21.18a1.36,1.36,0,0,1,2-1.25c3.26,1.83,9.39,6.51,13,17.14a1.37,1.37,0,0,0,2.61,0,10,10,0,0,0,.34-3.09,1.37,1.37,0,0,1,2.41-.94,42.11,42.11,0,0,1,6,9.39c0.14,0.3.27,0.61,0.4,0.92s0.27,0.63.39,1C521.23,544.14,521.21,555.5,507.52,564.89Z" />
            <path class="cls-1"
                d="M495.5,414.49A80.53,80.53,0,1,0,576,495,80.61,80.61,0,0,0,495.5,414.49Zm0,159.07A78.53,78.53,0,1,1,574,495,78.61,78.61,0,0,1,495.5,573.56ZM481,450.35a6.82,6.82,0,1,0-6.82-6.82A6.83,6.83,0,0,0,481,450.35Zm0-11.65a4.82,4.82,0,1,1-4.82,4.82A4.83,4.83,0,0,1,481,438.7Zm20.71,15.63a5.08,5.08,0,1,0-5.08-5.08A5.08,5.08,0,0,0,501.74,454.33Zm0-8.15a3.08,3.08,0,1,1-3.08,3.08A3.08,3.08,0,0,1,501.74,446.18Zm3.4-12.51a3.93,3.93,0,0,0,1.07-.15A3.91,3.91,0,1,0,505.14,433.67Zm-1.67-4.84a1.91,1.91,0,1,1,2.2,2.77h0A1.91,1.91,0,0,1,503.46,428.83ZM531,479a4,4,0,0,0,4-4v-1a4,4,0,0,0-4-4H519a9,9,0,0,0-16.84-4.29,5.95,5.95,0,0,0-8,4.29H481.55a2.26,2.26,0,0,0,0-.26,6.26,6.26,0,0,0-12.51,0,2.26,2.26,0,0,0,0,.26H460a4,4,0,0,0-4,4v1a4,4,0,0,0,4,4h2.27a40.76,40.76,0,0,0-7.32,23.22,40.2,40.2,0,0,0,19,34.13c0.15-.3.3-0.6,0.44-0.9s0.3-.6.45-0.9a38.19,38.19,0,0,1-17.85-32.33c0-1.07,0-2.13.13-3.18a39.42,39.42,0,0,1,7.63-20h60.58a39.62,39.62,0,0,1,7.45,18.33,36.86,36.86,0,0,1,.31,4.83A38.28,38.28,0,0,1,517,533.37c0.14,0.3.27,0.61,0.4,0.92s0.27,0.63.39,1a40.22,40.22,0,0,0,17.3-33.08A40.66,40.66,0,0,0,527.73,479H531Zm-21-15.87a7,7,0,0,1,7,6.87H505.74a5.94,5.94,0,0,0-1.88-3.23A7,7,0,0,1,510,463.13Zm-10.07,4.15a3.9,3.9,0,0,1,1.45.28,3.81,3.81,0,0,1,1.73,1.36,3.58,3.58,0,0,1,.56,1.08h-7.48A3.93,3.93,0,0,1,499.93,467.28Zm-24.62-1.79a4.26,4.26,0,0,1,4.25,4.25,2.26,2.26,0,0,1,0,.26h-8.49a2.26,2.26,0,0,1,0-.26A4.26,4.26,0,0,1,475.31,465.49ZM464.2,477H460a2,2,0,0,1-2-2v-1a2,2,0,0,1,2-2h71a2,2,0,0,1,2,2v1a2,2,0,0,1-2,2H464.2Z" />
        </g>
        <g id="_7" data-name="7">
            <ellipse class="cls-2" cx="305.5" cy="495.02" rx="79.5" ry="79.53" />
            <path class="cls-1"
                d="M305,456a25,25,0,0,0-25,25v57a1,1,0,0,0,1,1l0.8,0,0.2,0h14.12A33.91,33.91,0,0,0,330,505.13V481A25,25,0,0,0,305,456Zm-23,34.79a24.93,24.93,0,0,0,26,15V510a27,27,0,0,1-26,27V490.79ZM305,504a23,23,0,0,1-23-21.73,11,11,0,0,1,22,.73,1,1,0,0,0,2,0,11,11,0,0,1,22-.73A23,23,0,0,1,305,504Zm0-46a23,23,0,0,1,22.19,16.95A13,13,0,0,0,305,478a13,13,0,0,0-22.19-3A23,23,0,0,1,305,458Zm-8.88,79h-4.56A29,29,0,0,0,310,510v-4.5a25.09,25.09,0,0,0,18-14.7v14.34A31.91,31.91,0,0,1,296.12,537Zm-0.62-59a3.5,3.5,0,1,0,3.5,3.5A3.5,3.5,0,0,0,295.5,478Zm0,5a1.5,1.5,0,1,1,1.5-1.5A1.5,1.5,0,0,1,295.5,483Zm18-5a3.5,3.5,0,1,0,3.5,3.5A3.5,3.5,0,0,0,313.5,478Zm0,5a1.5,1.5,0,1,1,1.5-1.5A1.5,1.5,0,0,1,313.5,483Z" />
            <path class="cls-5"
                d="M313.75,447h-17.5A32.29,32.29,0,0,0,264,479.25V538a1,1,0,0,0,1,1h80a1,1,0,0,0,1-1V479.25A32.29,32.29,0,0,0,313.75,447ZM266,479.25a30.3,30.3,0,0,1,23-29.37V537H266V479.25Zm25-29.78a30.28,30.28,0,0,1,5.25-.47H304v88H291V449.47ZM306,537V449h7.75a30.28,30.28,0,0,1,5.25.47V537H306Zm38,0H321V449.88a30.3,30.3,0,0,1,23,29.37V537Z" />
            <rect class="cls-3" x="290" y="440" width="30" height="8" rx="4" ry="4" />
            <rect class="cls-3" x="258" y="538" width="94" height="8" rx="2.25" ry="2.25" />
            <path class="cls-1"
                d="M305.5,414.49A80.53,80.53,0,1,0,386,495,80.61,80.61,0,0,0,305.5,414.49Zm0,159.07A78.53,78.53,0,1,1,384,495,78.61,78.61,0,0,1,305.5,573.56ZM294,449h22a5,5,0,0,0,0-10h-5.36a9,9,0,1,0-11.29,0H294A5,5,0,0,0,294,449Zm4-17a7,7,0,1,1,7,7A7,7,0,0,1,298,432Zm-4,9h22a3,3,0,0,1,0,6H294A3,3,0,0,1,294,441Zm55.75,96h-89.5a3.25,3.25,0,0,0-3.25,3.25v3.5a3.25,3.25,0,0,0,3.25,3.25h89.5a3.25,3.25,0,0,0,3.25-3.25v-3.5A3.25,3.25,0,0,0,349.75,537Zm1.25,6.75a1.25,1.25,0,0,1-1.25,1.25h-89.5a1.25,1.25,0,0,1-1.25-1.25v-3.5a1.25,1.25,0,0,1,1.25-1.25h89.5a1.25,1.25,0,0,1,1.25,1.25v3.5Z" />
        </g>
        <g id="_6" data-name="6">
            <ellipse class="cls-2" cx="685.5" cy="305.02" rx="79.5" ry="79.53" />
            <path class="cls-6"
                d="M701.93,353.46l-47.24-.89,22.76-39.82,11.2-9.48,8.91,14.25Zm-26.77-42.71,12.4-10.5,2.78-27.79-42.12,52.43Zm46.46,22.64L700.88,320l3.89,31.93Z" />
            <path class="cls-13"
                d="M690.54,300.64l9.55,15.28,23.79,15.34c-0.71-8.72-5.24-47.93-30.17-62.33Z" />
            <polygon class="cls-14" points="672.36 315.61 643.55 330.73 650.79 353.34 672.36 315.61" />
            <path class="cls-2"
                d="M671,263h0a11,11,0,0,0-11-11h0a11,11,0,0,0,11-11h0a11,11,0,0,0,11,11h0A11,11,0,0,0,671,263Z" />
            <path class="cls-15"
                d="M656,283h0a7,7,0,0,0-7-7h0a7,7,0,0,0,7-7h0a7,7,0,0,0,7,7h0A7,7,0,0,0,656,283Z" />
            <circle class="cls-15" cx="732.5" cy="298.5" r="4.5" />
            <path class="cls-1"
                d="M685.5,385.56A80.53,80.53,0,1,1,766,305,80.61,80.61,0,0,1,685.5,385.56Zm0-159.07A78.53,78.53,0,1,0,764,305,78.61,78.61,0,0,0,685.5,226.49ZM672,263h-2a10,10,0,0,0-10-10v-2a10,10,0,0,0,10-10h2a10,10,0,0,0,10,10v2A10,10,0,0,0,672,263Zm-7.21-11a12.07,12.07,0,0,1,6.21,6.21,12.07,12.07,0,0,1,6.21-6.21,12.07,12.07,0,0,1-6.21-6.21A12.07,12.07,0,0,1,664.79,252ZM657,283h-2a6,6,0,0,0-6-6v-2a6,6,0,0,0,6-6h2a6,6,0,0,0,6,6v2A6,6,0,0,0,657,283Zm-4.13-7a8,8,0,0,1,3.13,3.13,8,8,0,0,1,3.13-3.13,8,8,0,0,1-3.13-3.13A8,8,0,0,1,652.87,276ZM718,289h-2a6,6,0,0,0-6-6v-2a6,6,0,0,0,6-6h2a6,6,0,0,0,6,6v2A6,6,0,0,0,718,289Zm-4.13-7a8,8,0,0,1,3.13,3.13,8,8,0,0,1,3.13-3.13,8,8,0,0,1-3.13-3.13A8,8,0,0,1,713.87,282Zm18.63,22a5.5,5.5,0,1,1,5.5-5.5A5.51,5.51,0,0,1,732.5,304Zm0-9a3.5,3.5,0,1,0,3.5,3.5A3.5,3.5,0,0,0,732.5,295Zm-70,2a3.5,3.5,0,1,1,3.5-3.5A3.5,3.5,0,0,1,662.5,297Zm0-5a1.5,1.5,0,1,0,1.5,1.5A1.5,1.5,0,0,0,662.5,292Zm-11,9a2.5,2.5,0,1,1,2.5-2.5A2.5,2.5,0,0,1,651.5,301Zm0-3a0.5,0.5,0,1,0,.5.5A0.5,0.5,0,0,0,651.5,298Zm-8.5,4h-2v2h2v-2Zm10,10h-2v2h2v-2Z" />
        </g>
        <g id="_5" data-name="5">
            <ellipse class="cls-2" cx="495.5" cy="305.02" rx="79.5" ry="79.53" />
            <path class="cls-10"
                d="M551.5,349H438.39a0.91,0.91,0,0,1-.33-1.7L460.12,337h69.76l21.94,10.3A0.91,0.91,0,0,1,551.5,349Zm-26.91-26.45-5.23-7.65,1.92-5.71a5.17,5.17,0,0,0,0-3.23l-3.42-11,2-3.45a2,2,0,0,0-.48-2.5l-4.35-3.45,3.13-7-6.3-11,5-2.13a4.5,4.5,0,0,0,2.7-3.66L520,258l20.49,6.88-8.89-13.72a2.9,2.9,0,0,0-.26-0.35,4.85,4.85,0,0,0-3.38-1.82l-8-.63L514,244.3l-0.84-4.55L501.87,243l-11.08,21h-4L479,281l-4.07,8.88,2.78,3-10,14.25a2.36,2.36,0,0,0,0,2.73l4.06,5.78-9,7.57a1.84,1.84,0,0,0-.48,2.18l2.06,4.59h61.31l-0.2-4.83A5.12,5.12,0,0,0,524.59,322.55Z" />
            <path class="cls-12"
                d="M531.31,250.85l-7.8.88a11.21,11.21,0,0,1-7.92-2.11l-4.2-3.08-5.29.93-9.74,21a3.76,3.76,0,0,1-2.75,2.11l-5.13.9L479,281l7.82-17h4l11.08-21,11.32-3.25L514,244.3l5.94,4.1,8,0.63A4.85,4.85,0,0,1,531.31,250.85Z" />
            <path class="cls-11"
                d="M529.89,337H460.12l4.23-7h61.31Zm-23.32-34.29L496.63,286l-15.5-3.88L483.86,296l11.71,6.66L487,308.82l19.54-4.89,4.89,3.66,8.4-6.38-2-6.3ZM502,319l19.47,5.68L512,313l-9-1-30,12Z" />
            <path class="cls-1"
                d="M495.5,385.56A80.53,80.53,0,1,1,576,305,80.61,80.61,0,0,1,495.5,385.56Zm0-159.07A78.53,78.53,0,1,0,574,305,78.61,78.61,0,0,0,495.5,226.49Zm56.75,119.9-21.67-10.17-4.07-6.74a1,1,0,0,0-.14-0.18L526,325.13h0a5.41,5.41,0,0,0-.81-3.14l-4.72-7.24,1.76-5.23a6.21,6.21,0,0,0,.05-3.85L519,295l1.8-3.07a3,3,0,0,0-.72-3.79l-3.74-3,2.81-6.29a1,1,0,0,0,0-.91l-5.74-10,3.94-1.69a5.48,5.48,0,0,0,3.3-4.48l0.25-2.47,12.75,4.28h0l6.53,2.19a1,1,0,0,0,1.16-1.49l-8.89-13.72A5.8,5.8,0,0,0,528,248l-7.69-.61-5.38-3.71-0.76-4.14a1,1,0,0,0-1.26-.78L501.6,242a1,1,0,0,0-.61.49L490.18,263h-3.37a1,1,0,0,0-.91.58L474,289.49a1,1,0,0,0,.18,1.1l2.23,2.4-9.54,13.58a3.35,3.35,0,0,0,0,3.89l3.53,5-8.27,7a2.84,2.84,0,0,0-.76,3.37l1.85,4.11-3.8,6.29-21.78,10.17a1.87,1.87,0,0,0-1,2.13,1.79,1.79,0,0,0,1.75,1.48H551.5a1.79,1.79,0,0,0,1.75-1.48A1.87,1.87,0,0,0,552.25,346.39ZM463.42,324l9-7.57a1,1,0,0,0,.17-1.34l-4.06-5.78a1.35,1.35,0,0,1,0-1.57l10-14.25a1,1,0,0,0-.09-1.26l-2.32-2.5L487.45,265h3.33a1,1,0,0,0,.88-0.53l10.89-20.63,9.85-2.82,0.64,3.47a1,1,0,0,0,.42.64l5.94,4.09a1,1,0,0,0,.49.17l8,0.63a3.81,3.81,0,0,1,2.88,1.72L538.06,263l-17.77-6h0l-6.13-2a1,1,0,0,0-.64,1.93l5.38,1.81-0.3,2.93a3.48,3.48,0,0,1-2.1,2.84l-5,2.14A1,1,0,0,0,511,268l6,10.53-2.92,6.53a1,1,0,0,0,.29,1.19l4.35,3.45a1,1,0,0,1,.23,1.22l-1.91,3.25-10.27,7.06-9.39-15.79a1,1,0,0,0-.62-0.46l-15.5-3.88a1,1,0,0,0-1.22,1.16l2.73,13.92a1,1,0,0,0,.49.68l10.35,5.89-7.28,5.2a1,1,0,0,0,.58,1.81,1,1,0,0,0,.24,0L506.34,305l4.5,3.38a1,1,0,0,0,1.2,0l7.27-5.51,1,3.38a4.21,4.21,0,0,1,0,2.61l-1.92,5.71a1,1,0,0,0,.12.88l5.23,7.65a4,4,0,0,1,.69,2.1l0.16,3.79H465l-1.8-4A0.85,0.85,0,0,1,463.42,324Zm55.27-23.15-7.24,5.5-4-3,9.92-6.82Zm-22.62,1-11.31-6.43-2.34-11.92L496,286.88l9.66,16.25-13.76,3.44,4.26-3A1,1,0,0,0,496.07,301.84ZM464.91,331h60.18l3,5H461.89Zm-26,17,21.42-10h69.32L551,348h-112Zm34.25-23,28.77-5,19.25,5.61a1,1,0,0,0,1.06-1.59l-9.47-11.68a1,1,0,0,0-.67-0.36l-9-1a1.05,1.05,0,0,0-.48.07l-30,12A1,1,0,0,0,473.17,325Zm30-12,8.34,0.93,7.2,8.87L502.28,318a1,1,0,0,0-.28,0h-0.17l-19.64,3.39Z" />
        </g>
        <g id="_4" data-name="4">
            <path class="cls-2"
                d="M385,305a79.49,79.49,0,0,1-142.91,48c-0.5-.66-1-1.32-1.46-2s-0.93-1.32-1.37-2-0.88-1.32-1.29-2a79.61,79.61,0,0,1,0-84c0.42-.67.85-1.34,1.29-2s0.9-1.34,1.38-2,1-1.34,1.47-2A79.49,79.49,0,0,1,385,305Z" />
            <path class="cls-6"
                d="M362,273.92v62.16A14.93,14.93,0,0,1,347.08,351H240.63c-0.47-.66-0.93-1.32-1.37-2s-0.88-1.32-1.29-2a79.61,79.61,0,0,1,0-84c0.42-.67.85-1.34,1.29-2s0.9-1.34,1.38-2H347.08A14.93,14.93,0,0,1,362,273.92Z" />
            <path class="cls-1"
                d="M347.08,257h-105c-0.51.66-1,1.33-1.47,2s-0.94,1.33-1.38,2h107.8A12.91,12.91,0,0,1,360,273.92v62.16A12.91,12.91,0,0,1,347.08,349H239.26c0.44,0.68.9,1.34,1.37,2s1,1.34,1.46,2h105A16.94,16.94,0,0,0,364,336.08V273.92A16.94,16.94,0,0,0,347.08,257Z" />
            <path class="cls-3"
                d="M347.08,259H240.66c-0.48.66-.94,1.33-1.38,2s-0.87,1.33-1.29,2H347.08A10.93,10.93,0,0,1,358,273.92v62.16A10.93,10.93,0,0,1,347.08,347H238c0.41,0.68.84,1.34,1.29,2s0.9,1.34,1.37,2H347.08A14.93,14.93,0,0,0,362,336.08V273.92A14.93,14.93,0,0,0,347.08,259Z" />
            <circle class="cls-2" cx="305" cy="305" r="37" />
            <path class="cls-1"
                d="M285.62,323.28v-1.9a14.89,14.89,0,0,0,3-.32,11.28,11.28,0,0,0,2.89-1,9.5,9.5,0,0,0,2.39-1.73,11.44,11.44,0,0,0,2.11-2.84,16,16,0,0,0,1.33-3.5,29.46,29.46,0,0,0,.73-4l-0.26-.11a13.82,13.82,0,0,1-8.72,2.67,10,10,0,0,1-5.3-1.33,8.25,8.25,0,0,1-3.26-3.73,13.43,13.43,0,0,1-1.08-5.59,12,12,0,0,1,1.65-6.28,10.8,10.8,0,0,1,4.74-4.24,16.8,16.8,0,0,1,7.32-1.48,13.69,13.69,0,0,1,7.18,1.76,10.71,10.71,0,0,1,4.36,5.11,20.53,20.53,0,0,1,1.44,8.12,26.49,26.49,0,0,1-2.25,11.39,17.15,17.15,0,0,1-6.54,7.43A22.51,22.51,0,0,1,287,324.84Zm6.55-16.33a8.49,8.49,0,0,0,1.82-.19,6.65,6.65,0,0,0,1.6-.57,7.41,7.41,0,0,0,1.4-.93,4.22,4.22,0,0,0,.86-0.89,3.33,3.33,0,0,0,.36-1,8.77,8.77,0,0,0,.15-1.8,18.14,18.14,0,0,0-1.39-7.94,4.38,4.38,0,0,0-4.06-2.76,5.25,5.25,0,0,0-2.63.61,4.79,4.79,0,0,0-1.74,1.72,7.87,7.87,0,0,0-1,2.66,18.39,18.39,0,0,0-.29,3.4Q287.28,306.94,292.17,306.95Zm20.22-17.84v-2.6a13,13,0,0,1,5-1.18,7,7,0,0,1,2.38.37,3.46,3.46,0,0,1,1.6,1.09,2.72,2.72,0,0,1,.56,1.74,3.47,3.47,0,0,1-.37,1.64,3.81,3.81,0,0,1-1,1.23,9.26,9.26,0,0,1-1.75,1v0.1a5,5,0,0,1,1.74.64,3.48,3.48,0,0,1,1.71,3.09,4.19,4.19,0,0,1-.62,2.26,4.11,4.11,0,0,1-1.88,1.56,7.45,7.45,0,0,1-3.06.56,13.15,13.15,0,0,1-2.43-.22,9.09,9.09,0,0,1-2.08-.63V297h2a3.81,3.81,0,0,0,.9,1.81,2.09,2.09,0,0,0,1.52.56q2.32,0,2.32-2.87a3,3,0,0,0-.82-2.3,3.55,3.55,0,0,0-2.48-.76h-0.87v-1.25a4.75,4.75,0,0,0,2.89-.89,3.45,3.45,0,0,0,.49-4.2,1.72,1.72,0,0,0-1.43-.62,2,2,0,0,0-1.8,1.06,4.38,4.38,0,0,0-.52,1.53h-2Zm3.67,33.52a3.16,3.16,0,0,0,.63-0.24,0.87,0.87,0,0,0,.36-0.34,1.42,1.42,0,0,0,.15-0.55c0-.23,0-0.51,0-0.85V319h-5.87v-1.18l6.65-9.51h2.46v9.31h0.34a2.74,2.74,0,0,0,.76-0.07,0.79,0.79,0,0,0,.38-0.27,2.07,2.07,0,0,0,.3-0.7h1.15L323.27,319h-2.79v1.63a6.09,6.09,0,0,0,.05.93,1.4,1.4,0,0,0,.19.55,0.82,0.82,0,0,0,.36.31,4.28,4.28,0,0,0,.58.2v0.72h-5.6v-0.72Zm-2.57-5h3.75v-2.51q0-1.58.11-3.32h-0.11l-3.75,5.64v0.19ZM325,304H310v2h15v-2Zm-19.5,81.56A80.53,80.53,0,1,1,386,305,80.61,80.61,0,0,1,305.5,385.56Zm0-159.07A78.53,78.53,0,1,0,384,305,78.61,78.61,0,0,0,305.5,226.49Z" />
        </g>
        <g id="_3" data-name="3">
            <ellipse class="cls-2" cx="685.5" cy="115.02" rx="79.5" ry="79.53" />
            <path class="cls-5"
                d="M737.24,146.09a22.06,22.06,0,0,1-.21,3.06,23,23,0,0,1-45.52,0,22,22,0,0,1-.21-3.06A23,23,0,1,1,737.24,146.09Z" />
            <path class="cls-16"
                d="M713.4,137l-3.48-15.89A116.33,116.33,0,0,0,684,69.67a33.9,33.9,0,0,1-3.4-4.65,2.68,2.68,0,0,1-.15-0.26l-0.9.43,0.86-.51A33.41,33.41,0,0,1,676,52.22l-2,.43A35.79,35.79,0,0,0,678.67,66h0a0.37,0.37,0,0,1,.2.21,35.19,35.19,0,0,0,3.6,4.85c0.49,0.56,1,1.09,1.44,1.66l-4.93,3-0.12,2.41,6.35-3.87q1.08,1.33,2.12,2.7l-8.69,5.27-0.12,2.42,10-6.08q1,1.37,2,2.78L678.3,88.76l-0.12,2.42L691.62,83q0.94,1.43,1.84,2.88L678,95.25c0,0.77,0,1.54.09,2.3l16.37-10q0.87,1.47,1.7,3l-17.64,10.74c0.11,0.71.24,1.41,0.4,2.1l18.2-11.08q0.8,1.51,1.56,3l-18.86,11.48c0.2,0.65.42,1.3,0.66,1.94L699.6,97.15q0.73,1.55,1.42,3.12l-19.14,11.66c0.28,0.61.58,1.2,0.9,1.79l19-11.58q0.66,1.59,1.28,3.21l-18.57,11.3c0.36,0.56.74,1.11,1.13,1.65l18.15-11q0.59,1.64,1.13,3.29L687.81,121c0.44,0.51.9,1,1.37,1.51l16.39-10q0.52,1.69,1,3.39l-14.8,9c0.53,0.46,1.08.91,1.64,1.34l13.71-8.35q0.44,1.74.83,3.5l-11.5,7c0.64,0.4,1.28.79,2,1.15l10-6.08,0.77,3.52-7.33,4.46,2,1.11,5.76-3.5,0.77,3.52-3.08,1.87,2,1.11,1.5-.92,0.62,2.82Z" />
            <path class="cls-17"
                d="M702.06,129.7l-10.56-12.37a116.34,116.34,0,0,0-47.16-33.16,33.82,33.82,0,0,1-5.19-2.5l-0.26-.17-0.59.81,0.52-.86a33.46,33.46,0,0,1-9.75-8.91l-1.61,1.18a35.42,35.42,0,0,0,10.33,9.44h0l0.35,0.22a35.89,35.89,0,0,0,5.5,2.64c0.69,0.26,1.38.54,2.07,0.82l-2.93,5,1,2.2,3.77-6.4q1.59,0.67,3.15,1.38l-5.17,8.76,1,2.18,5.95-10.09q1.54,0.74,3.06,1.53l-7.26,12.3,1,2.19,8-13.56q1.5,0.81,3,1.67l-9.17,15.55c0.36,0.67.74,1.33,1.15,2L662.05,95q1.46,0.88,2.9,1.81l-10.51,17.8c0.44,0.56.88,1.11,1.35,1.65l10.83-18.35q1.42,1,2.81,1.94l-11.21,19c0.49,0.49,1,1,1.5,1.39L671.06,101q1.38,1,2.73,2.09l-11.39,19.31c0.54,0.4,1.08.78,1.64,1.14l11.32-19.19q1.34,1.09,2.65,2.23l-11,18.74c0.59,0.32,1.18.63,1.79,0.91l10.79-18.3q1.3,1.17,2.56,2.37l-10.19,17.29c0.64,0.24,1.28.47,1.93,0.67l9.74-16.52q1.25,1.24,2.47,2.52l-8.81,14.93c0.69,0.15,1.39.29,2.09,0.41l8.15-13.82q1.21,1.32,2.38,2.68L683,130.08c0.75,0.06,1.51.09,2.27,0.1l5.94-10.08,2.35,2.75-4.35,7.38,2.31,0,3.42-5.8,2.34,2.74-1.82,3.1,2.31,0,0.89-1.51,1.88,2.2Z" />
            <path class="cls-5"
                d="M654,125.65a1,1,0,0,1-.71-0.29,40.61,40.61,0,0,1-4.1-4.76,1,1,0,1,1,1.61-1.18,38.59,38.59,0,0,0,3.9,4.53A1,1,0,0,1,654,125.65Zm22,10.1a1,1,0,0,0-.81-1.16,38.86,38.86,0,0,1-16.73-7.38,1,1,0,1,0-1.22,1.59,40.88,40.88,0,0,0,17.6,7.76l0.18,0A1,1,0,0,0,676,135.75Zm-6,6.37a1,1,0,0,0-.87-1.12,19.39,19.39,0,0,1-7.91-2.87,1,1,0,1,0-1,1.72,21.26,21.26,0,0,0,8.69,3.14H669A1,1,0,0,0,670,142.12Z" />
            <path class="cls-3"
                d="M723.46,158.34a21.35,21.35,0,0,1-9.92-2.43,1.23,1.23,0,0,1,.16-2.25,18.38,18.38,0,0,0,8.78-29,22.82,22.82,0,0,0-8.21-1.52l-0.9,0a18.35,18.35,0,0,0,.6,20.76,3,3,0,0,1-.7,4.26l-0.11.08a3,3,0,0,1-4-.6,18.35,18.35,0,0,1,1-24.13,22.75,22.75,0,0,0-9.85,4.38,0.49,0.49,0,0,1-.21,0c-5.19,4-8.06,10.18-9.06,17.17v0s0.22,0,.26.05a18.89,18.89,0,0,1,2.66,1.6,18.11,18.11,0,0,1,1.47,1.19,17.54,17.54,0,0,1,4,5.41c0.09,0.19.19,0.38,0.27,0.57a18.63,18.63,0,0,1,1.52,7.44c0,0.74,0,1.46-.09,2.17,0,0.34-.2.67-0.26,1a0.32,0.32,0,0,1,.16.2h0a23.32,23.32,0,0,0,13.31,4.27,22.41,22.41,0,0,0,12.1-3.52,22.86,22.86,0,0,0,9.18-11A21.2,21.2,0,0,1,723.46,158.34Z" />
            <path class="cls-1"
                d="M735,153.73a20.23,20.23,0,0,1-11.56,3.61A20.48,20.48,0,0,1,714,155a0.24,0.24,0,0,1-.13-0.24,0.17,0.17,0,0,1,.13-0.17,19.38,19.38,0,0,0,9.26-30.6l-0.17-.21-0.25-.1a23.8,23.8,0,0,0-8.57-1.58l-1,0-0.51,0-0.28.43a19.35,19.35,0,0,0,.64,21.89,2,2,0,0,1,.36,1.54,2,2,0,0,1-.82,1.31l-0.11.07a2,2,0,0,1-2.68-.41,17.34,17.34,0,0,1,.94-22.82L713,122l-3,.54a23.85,23.85,0,0,0-10,4.36l-0.13,0-0.36.28C694.38,131,691.12,137.2,690,145v0.19a1,1,0,0,0,.93,1,17.33,17.33,0,0,1,2.4,1.45,16.7,16.7,0,0,1,1.39,1.12,16.45,16.45,0,0,1,3.79,5.11L698.6,154l0.16,0.34a17.57,17.57,0,0,1,1.44,7c0,0.84,0,1.48-.08,2.05a2.11,2.11,0,0,1-.1.37,4.87,4.87,0,0,0-.15.57l-0.08.61,0.22,0.18v0.14l0.44,0.3a24.26,24.26,0,0,0,13.86,4.44,23.29,23.29,0,0,0,12.63-3.67,24,24,0,0,0,9.58-11.47l1.2-3.06Zm-9.15,11c-0.24.15-.49,0.29-0.74,0.43l0.46,0.14-0.53,1.93c-0.84-.23-1.67-0.5-2.48-0.79a21.23,21.23,0,0,1-8.27,1.66A22.16,22.16,0,0,1,702,164.24a3.35,3.35,0,0,0,.12-0.56,22.37,22.37,0,0,0,.1-2.27,19.57,19.57,0,0,0-1.6-7.84c-0.06-.14-0.13-0.28-0.2-0.43l-0.08-.17a18.44,18.44,0,0,0-4.24-5.72,18.82,18.82,0,0,0-1.55-1.25,18.63,18.63,0,0,0-2.42-1.49A26,26,0,0,1,698,131.28c0-.86,0-1.69.1-2.47l2,0.16c0,0.09,0,.19,0,0.28,0.15-.12.28-0.26,0.43-0.38a1.15,1.15,0,0,0,.43-0.21l0,0a22,22,0,0,1,6.54-3.44,19.35,19.35,0,0,0,.89,23.06,4,4,0,0,0,5.34.82l0.15-.1a4,4,0,0,0,1.66-2.62,4,4,0,0,0-.72-3.06,17.35,17.35,0,0,1-.85-19.19,22,22,0,0,1,7.93,1.35,17.38,17.38,0,0,1-8.48,27.23,2.16,2.16,0,0,0-1.51,1.9,2.24,2.24,0,0,0,1.19,2.19,22.49,22.49,0,0,0,10.39,2.55,22.2,22.2,0,0,0,9.8-2.27A22.06,22.06,0,0,1,725.87,164.69Zm-0.74.43a22,22,0,0,1-2.56,1.28A37.09,37.09,0,0,1,698,131.54c0-.09,0-0.17,0-0.26a19.74,19.74,0,0,1,2.07-2c-0.05.73-.08,1.49-0.08,2.29A35.07,35.07,0,0,0,725.13,165.13Z" />
            <path class="cls-18"
                d="M714.27,123.12a23,23,0,0,0-23,23,22,22,0,0,0,.21,3.06,23,23,0,0,1,45.52,0,22.06,22.06,0,0,0,.21-3.06A23,23,0,0,0,714.27,123.12Z" />
            <path class="cls-1"
                d="M685.5,195.56A80.53,80.53,0,1,1,766,115,80.61,80.61,0,0,1,685.5,195.56Zm0-159.07A78.53,78.53,0,1,0,764,115,78.61,78.61,0,0,0,685.5,36.49Zm56.77,102.93a1,1,0,0,0,.71-1.22A30.05,30.05,0,0,0,721.84,117a1,1,0,0,0-.52,1.93A28,28,0,0,1,741,138.72,1,1,0,0,0,742.27,139.43Zm2.25-8.54a1,1,0,0,0,.42-1.35,35,35,0,0,0-9.31-11.19,1,1,0,1,0-1.24,1.57,33,33,0,0,1,8.79,10.55A1,1,0,0,0,744.52,130.88Zm-30.24,39.18a24,24,0,1,1,24-24A24,24,0,0,1,714.27,170.06Zm0-45.94a22,22,0,1,0,22,22A22,22,0,0,0,714.27,124.12Z" />
        </g>
        <g id="_2" data-name="2">
            <path class="cls-2"
                d="M575,115a79.4,79.4,0,0,1-31,63c-0.33.27-.66,0.52-1,0.77l-1,.73a77.94,77.94,0,0,1-12,7.16q-1.48.72-3,1.38l-1,.42-1,.4c-1.31.54-2.65,1-4,1.49A79.29,79.29,0,0,1,505,194c-0.66.08-1.33,0.15-2,.2-0.33,0-.66.07-1,0.09s-0.66.06-1,.08c-1.82.13-3.65,0.19-5.5,0.19A79.08,79.08,0,0,1,448,178.8l-1-.76-1-.79A79.52,79.52,0,1,1,575,115Z" />
            <path class="cls-10"
                d="M543,172.25v6.56a79.48,79.48,0,0,1-96-.77v-5.66a13.5,13.5,0,0,1,3.66-9.38,13,13,0,0,1,9.49-4H530a12.83,12.83,0,0,1,9.45,4A13.36,13.36,0,0,1,543,172.25Zm-4.74-79.5A43.72,43.72,0,0,0,483.37,57a24.1,24.1,0,0,0,1.14-3.2c-4.84,1.21-6.2,4.16-6.51,6.33-0.25.29-.45,0.53-0.58,0.7a14,14,0,0,0-12.29-2.18,56.44,56.44,0,0,1,6.06,3.73c-0.19.11-.36,0.22-0.55,0.32-3,.14-12.08,1.12-16,8.06a16,16,0,0,1,7.57-1.13A43.05,43.05,0,0,0,451.81,93a45.17,45.17,0,0,0-.4,6.07,43.31,43.31,0,0,0,16.49,34.35,30.27,30.27,0,0,1-4.9-16.09v-7.05c1-14,11.89-27.18,17.9-33.66a37.5,37.5,0,0,0,18.81,16.8c-0.54-2.69.07-8.07,0.07-8.07s5.14,5.38,8.1,7.26a29,29,0,0,1-.53-5.64s6.65,8,19.65,14.25v16.11a30.27,30.27,0,0,1-4.9,16.09A43.77,43.77,0,0,0,538.26,92.75Z" />
            <path class="cls-11"
                d="M539.43,163H530v23.7q-2.45,1.2-5,2.2c-1.31.54-2.65,1-4,1.49V163H450.66a13,13,0,0,1,9.49-4H530A12.83,12.83,0,0,1,539.43,163ZM467.9,133.41a30.27,30.27,0,0,1-4.9-16.09V114.2A53.5,53.5,0,0,1,451.81,93a45.17,45.17,0,0,0-.4,6.07A43.31,43.31,0,0,0,467.9,133.41Zm70.82-34.35a43.79,43.79,0,0,0-.46-6.31A53.51,53.51,0,0,1,527,114.2v3.12a30.27,30.27,0,0,1-4.9,16.09A43.42,43.42,0,0,0,538.72,99.06Z" />
            <path class="cls-8"
                d="M527.55,135h-65.1c-3.87,0-7.45,2.71-7.45,6.58v14.21a3.48,3.48,0,0,0,2.26,3,3.14,3.14,0,0,0,1.19.25H502v35.29c0.34,0,.67,0,1-0.09,0.67-.05,1.34-0.12,2-0.2a79.29,79.29,0,0,0,16-3.61c1.35-.46,2.69-1,4-1.49l1-.4V159h5.55a3.59,3.59,0,0,0,3.45-3.21V141.58C535,137.71,531.42,135,527.55,135Z" />
            <path class="cls-6"
                d="M479,97a1,1,0,0,1-.86-1.51L481,90.75,476.25,92a1,1,0,0,1-1.12-1.46l4-7a1,1,0,0,1,1.74,1L478,89.44l4.79-1.23a1,1,0,0,1,1.11,1.48l-4.08,6.82A1,1,0,0,1,479,97Zm46,79v-9H503v9h22Zm-22,9v9h2a79.29,79.29,0,0,0,16-3.61c1.35-.46,2.69-1,4-1.49V185H503Zm-27-50H466v23h10V135Zm20,0H486v23h10V135Zm20,0H506v23h10V135Zm18,21v-14.6a6.56,6.56,0,0,0-6.25-6.38H526v23h5.75A2.24,2.24,0,0,0,534,156Z" />
            <path class="cls-4"
                d="M516.08,135l-45.56,5a13.17,13.17,0,0,0-11.43,10.3l-1.83,8.45a3.48,3.48,0,0,1-2.26-3V141.58c0-3.87,3.58-6.58,7.45-6.58h53.63Z" />
            <rect class="cls-5" x="503" y="160" width="22" height="3" />
            <path class="cls-1"
                d="M483.7,107.94a1.61,1.61,0,1,1-1.61-1.61A1.61,1.61,0,0,1,483.7,107.94Zm24.22-1.61a1.61,1.61,0,1,0,1.61,1.61A1.61,1.61,0,0,0,507.92,106.32ZM495,121a7,7,0,0,0,4.75-1.91,1,1,0,0,0-1.35-1.48,4.94,4.94,0,0,1-6.8,0,1,1,0,0,0-1.35,1.48A7,7,0,0,0,495,121Zm0,10.49c4.28,0,8-1,9.69-2.71a1,1,0,1,0-1.41-1.42c-1.07,1.06-4.05,2.13-8.28,2.13s-7.21-1.07-8.28-2.13a1,1,0,1,0-1.41,1.42C487,130.5,490.72,131.54,495,131.54ZM576,115a80.5,80.5,0,1,1-80.5-80.53A80.61,80.61,0,0,1,576,115Zm-80.5,78.53c1.85,0,3.68-.09,5.5-0.21V160H460.15a12,12,0,0,0-8.77,3.69,12.53,12.53,0,0,0-3.38,8.69v5.11A78.06,78.06,0,0,0,495.5,193.56ZM460.15,158h71.4a2.61,2.61,0,0,0,2.45-2.21V141.58c0-3.44-3.35-5.58-6.45-5.58H462.45c-3.1,0-6.45,2.13-6.45,5.58v14.22a2.61,2.61,0,0,0,2.45,2.21h1.7Zm8.54-24h52.62a1,1,0,0,1-.06-1.12A29.3,29.3,0,0,0,526,117.32V110h-9.26a9.07,9.07,0,0,1-17.9-2.06c0-.08,0-0.16,0-0.25a7.17,7.17,0,0,0-7.71,0c0,0.08,0,.16,0,0.25a9.07,9.07,0,0,1-17.9,2.06H464c0,0.11,0,.23,0,0.34v7a29.3,29.3,0,0,0,4.75,15.56A1,1,0,0,1,468.69,134ZM463,70.35A42.25,42.25,0,0,0,452.8,93.12a44.23,44.23,0,0,0-.39,5.94,42.45,42.45,0,0,0,12,29.93A29.91,29.91,0,0,1,462,117.32v-7.05c0.75-10.48,7-22.33,18.17-34.34a1,1,0,0,1,1.61.2,36.77,36.77,0,0,0,16.75,15.7,46.59,46.59,0,0,1,.26-6.6,1,1,0,0,1,1.72-.58s3.27,3.42,6,5.68c-0.16-1.62-.16-3.13-0.16-3.37a1,1,0,0,1,1.77-.64c0.07,0.08,6.69,7.88,19.32,14a1,1,0,0,1,.56.9v16.11A29.9,29.9,0,0,1,525.54,129a42.38,42.38,0,0,0,12.18-30A42.59,42.59,0,0,0,495,56.47,43.31,43.31,0,0,0,483.63,58a1,1,0,0,1-1.17-1.38c0.16-.35.32-0.75,0.49-1.21a6.16,6.16,0,0,0-4,4.89,1,1,0,0,1-.23.51c-0.23.27-.42,0.5-0.54,0.65a1,1,0,0,1-1.36.22,13.53,13.53,0,0,0-8.92-2.57c1.77,1,3,1.89,3.84,2.48a1,1,0,0,1-.08,1.67l-0.17.1-0.42.24a1,1,0,0,1-.42.11c-2.28.11-9.23,0.81-13.44,5.22a17.12,17.12,0,0,1,5.05-.29A1,1,0,0,1,463,70.35Zm54,37.59s0,0,0,.06h9v-6.17a68.27,68.27,0,0,1-17.54-12.24,17.64,17.64,0,0,0,.39,2.77,1,1,0,0,1-1.51,1.09,50.76,50.76,0,0,1-6.75-5.86,25.36,25.36,0,0,0,.1,5.63,1,1,0,0,1-1.35,1.13,38.3,38.3,0,0,1-18.63-16c-9.44,10.42-15.07,20.61-16.45,29.71H473s0,0,0-.06a9.07,9.07,0,0,1,17.81-2.4,9.07,9.07,0,0,1,8.35,0A9.07,9.07,0,0,1,517,107.94Zm-9.07-7.07a7.07,7.07,0,1,0,7.07,7.07A7.08,7.08,0,0,0,507.92,100.87Zm-25.83,0a7.07,7.07,0,1,0,7.07,7.07A7.08,7.08,0,0,0,482.08,100.87ZM542,172.25a12.35,12.35,0,0,0-3.3-8.56A11.83,11.83,0,0,0,530,160h-3v26.94a78.52,78.52,0,0,0,15-8.69v-6ZM525,160H503v33.19a77.83,77.83,0,0,0,22-5.41V160Zm49-45a78.5,78.5,0,1,0-128,60.9v-3.54a14.52,14.52,0,0,1,3.94-10.07,13.69,13.69,0,0,1,5.52-3.53,4.13,4.13,0,0,1-1.46-3V141.58c0-4.18,3.79-7.58,8.45-7.58H467a44.25,44.25,0,0,1-16.64-34.94,46.29,46.29,0,0,1,.41-6.2,44.7,44.7,0,0,1,9.27-22.23A15,15,0,0,0,455,71.74a1,1,0,0,1-1.25-1.42c3.47-6.14,10.56-7.91,14.87-8.41-1-.66-2.35-1.45-4-2.33a1,1,0,0,1,.17-1.83,14.84,14.84,0,0,1,12.28,1.74c0.45-2.12,2-5.32,7.16-6.61a1,1,0,0,1,1.2,1.25q-0.23.79-.47,1.48a44.62,44.62,0,0,1,54.72,43.45A44.3,44.3,0,0,1,523,134h4.6c4.66,0,8.45,3.4,8.45,7.58v14.22a4.12,4.12,0,0,1-1.42,3,13.62,13.62,0,0,1,5.58,3.56,14.41,14.41,0,0,1,3.84,9.94v4.46A78.43,78.43,0,0,0,574,115Z" />
        </g>
        <g id="_1" data-name="1">
            <ellipse class="cls-2" cx="305.5" cy="115.02" rx="79.5" ry="79.53" />
            <path class="cls-8"
                d="M280,93.54h0a11,11,0,0,0-11-11h0a11,11,0,0,0,11-11h0a11,11,0,0,0,11,11h0A11,11,0,0,0,280,93.54Z" />
            <path class="cls-1"
                d="M305.5,196A80.53,80.53,0,1,1,386,115.47,80.61,80.61,0,0,1,305.5,196Zm0-159.07A78.53,78.53,0,1,0,384,115.47,78.61,78.61,0,0,0,305.5,36.93Zm49.25,25.12L337.86,77.56a6.71,6.71,0,0,0-5.15,2.24,6.9,6.9,0,0,0-2.26,4.92L326.2,89a2.35,2.35,0,0,0-3.26,3.26l-6.22,6.22a5,5,0,0,0-6.47,6.47l-6.86,6.86a5.74,5.74,0,0,0-1.33-.56,2.73,2.73,0,0,0-3.55,3.55,5.73,5.73,0,0,0,.56,1.33L291.21,124a5.69,5.69,0,0,0-2.73-.15,9.07,9.07,0,0,0-4.73,2.59c-2.3,2.3-3.17,5.23-2.44,7.46l-4.8,4.8a7,7,0,0,0-9.49,9.49l-4.45,4.45-10.56,5a2.24,2.24,0,0,0-.62,3.61l5.41,5.41a2.24,2.24,0,0,0,3.61-.62l5-10.56h0l4.45-4.45a7,7,0,0,0,9.49-9.49l4.8-4.8a5.22,5.22,0,0,0,1.62.26,8.54,8.54,0,0,0,5.84-2.7,9.07,9.07,0,0,0,2.59-4.73,5.68,5.68,0,0,0-.15-2.74l7.86-7.86a5.73,5.73,0,0,0,1.33.56,4,4,0,0,0,1,.14,2.67,2.67,0,0,0,1.93-.74,3,3,0,0,0,.6-3,5.74,5.74,0,0,0-.56-1.33l6.86-6.86a5,5,0,0,0,6.47-6.47l6.22-6.22a3.56,3.56,0,0,0,1.37.32,2.19,2.19,0,0,0,1.58-.62h0a2.61,2.61,0,0,0,.3-3l4.24-4.24,0.19,0a7.09,7.09,0,0,0,4.74-2.29,6.71,6.71,0,0,0,2.24-5.15l15.51-16.88A0.84,0.84,0,0,0,354.75,62.06ZM281,93.54h-2a10,10,0,0,0-10-10v-2a10,10,0,0,0,10-10h2a10,10,0,0,0,10,10v2A10,10,0,0,0,281,93.54Zm-7.21-11A12.07,12.07,0,0,1,280,88.75a12.07,12.07,0,0,1,6.21-6.21A12.07,12.07,0,0,1,280,76.34,12.07,12.07,0,0,1,273.79,82.54Zm49.94,66h-2a6,6,0,0,0-6-6v-2a6,6,0,0,0,6-6h2a6,6,0,0,0,6,6v2A6,6,0,0,0,323.73,148.5Zm-4.13-7a8,8,0,0,1,3.13,3.13,8,8,0,0,1,3.13-3.13,8,8,0,0,1-3.13-3.13A8,8,0,0,1,319.6,141.5Zm28.55-37.44a1,1,0,0,0,.69-1.24,45.3,45.3,0,0,0-6.34-13.4,1,1,0,1,0-1.64,1.14,43.31,43.31,0,0,1,6.07,12.81,1,1,0,0,0,1,.73A1,1,0,0,0,348.15,104.06ZM328.86,77.68a1,1,0,0,0-.34-1.37,45.3,45.3,0,0,0-12.46-5.18,1,1,0,0,0-.48,1.94,43.24,43.24,0,0,1,11.92,5A1,1,0,0,0,328.86,77.68Zm34.09,47c0.3-1.85.5-3.74,0.62-5.62a1,1,0,0,0-2-.12c-0.11,1.81-.31,3.64-0.6,5.43a1,1,0,0,0,.83,1.14H362A1,1,0,0,0,363,124.67Zm-0.73-16.75a1,1,0,0,0,.84-1.13,58.53,58.53,0,0,0-12.5-28.42A1,1,0,1,0,349,79.63a56.52,56.52,0,0,1,12.07,27.45,1,1,0,0,0,1,.86h0.15Zm-24.33-40a1,1,0,0,0-.27-1.39,58.06,58.06,0,0,0-22.6-9,1,1,0,0,0-.34,2,56.05,56.05,0,0,1,21.82,8.73A1,1,0,0,0,337.9,67.95Z" />
        </g>
    </g>
    <g id="title">
        <path class="cls-3"
            d="M196.33,280H0V140H196.33a2.58,2.58,0,0,1,2.43,3.45l-23.46,65.68a2.58,2.58,0,0,0,0,1.74l23.46,65.68A2.58,2.58,0,0,1,196.33,280Z" />
        <path class="cls-1"
            d="M72.9,196.1a11,11,0,0,0,.13,2.06,1.81,1.81,0,0,0,.52.93,3.26,3.26,0,0,0,1.43.63V201H64.78v-1.29a4,4,0,0,0,1.46-.59,1.58,1.58,0,0,0,.47-0.83,11,11,0,0,0,.14-2.2v-7.83H58v7.83q0,0.68,0,1.27a4.25,4.25,0,0,0,.16,1,1.71,1.71,0,0,0,.34.63,1.89,1.89,0,0,0,.62.44,5,5,0,0,0,1,.32V201H49.88v-1.29a5.48,5.48,0,0,0,1.14-.42,1.44,1.44,0,0,0,.63-0.62,2.82,2.82,0,0,0,.26-1Q52,197,52,196.1V179.26q0-.92,0-1.54a2.62,2.62,0,0,0-.25-1,1.58,1.58,0,0,0-.62-0.63,4.81,4.81,0,0,0-1.16-.44v-1.29H60.13v1.29a3.65,3.65,0,0,0-1.42.64,1.92,1.92,0,0,0-.54.93,9.27,9.27,0,0,0-.16,2.08v6.52h8.83v-6.52a11,11,0,0,0-.13-2.06,1.78,1.78,0,0,0-.51-0.94,3.57,3.57,0,0,0-1.44-.65v-1.29H75v1.29a4.45,4.45,0,0,0-1.25.5,1.47,1.47,0,0,0-.56.67,3.35,3.35,0,0,0-.21.92c0,0.34,0,.86,0,1.56V196.1Z" />
        <path class="cls-1"
            d="M90.09,198.44l-0.29-.1a11.51,11.51,0,0,1-3.12,2.27,7.53,7.53,0,0,1-3.21.7,6.5,6.5,0,0,1-2.92-.62A4.32,4.32,0,0,1,78.67,199a4.94,4.94,0,0,1-.63-2.52,5,5,0,0,1,2.82-4.52q2.82-1.65,8.56-2.08V188a7.56,7.56,0,0,0-.41-2.8,2.55,2.55,0,0,0-2.6-1.79,3.58,3.58,0,0,0-1.55.31,2.94,2.94,0,0,0-1.18,1.18,6.87,6.87,0,0,0-.78,2.41H79.21v-3.55q1.8-.8,3-1.23a23.37,23.37,0,0,1,2.35-.71,19.27,19.27,0,0,1,2.08-.4,14.51,14.51,0,0,1,1.84-.12,9.51,9.51,0,0,1,3.78.63,4.2,4.2,0,0,1,2.12,2,8.82,8.82,0,0,1,.7,3.89v7.62q0,1.29.06,2a4.25,4.25,0,0,0,.19,1,1.61,1.61,0,0,0,.32.55,1.51,1.51,0,0,0,.48.33,7.46,7.46,0,0,0,1.06.32V201H89.91Zm-0.64-6.66A8.05,8.05,0,0,0,85,192.91,3.58,3.58,0,0,0,83.51,196a2.44,2.44,0,0,0,.66,1.85,2.55,2.55,0,0,0,1.84.63,3.25,3.25,0,0,0,1.7-.48A3.55,3.55,0,0,0,89,196.72a3.31,3.31,0,0,0,.47-1.7v-3.24Z" />
        <path class="cls-1"
            d="M107.24,184.42l0.25,0.06a9.43,9.43,0,0,1,2.93-2.42,7.28,7.28,0,0,1,3.26-.74,13.14,13.14,0,0,1,2.5.25V187h-3.54a4.49,4.49,0,0,0-.87-1.74,1.82,1.82,0,0,0-1.44-.61,2.12,2.12,0,0,0-.95.26,3.42,3.42,0,0,0-1,.74,3,3,0,0,0-.62,1,4.32,4.32,0,0,0-.24,1,14.5,14.5,0,0,0-.06,1.52v6.23a16.75,16.75,0,0,0,.14,2.6,2.18,2.18,0,0,0,.55,1.16,2.55,2.55,0,0,0,1.39.6V201H100v-1.29a2.64,2.64,0,0,0,1.3-.66,2.24,2.24,0,0,0,.49-1.11,16.8,16.8,0,0,0,.13-2.56v-8q0-1.44,0-2.14a3.33,3.33,0,0,0-.23-1.11,1.61,1.61,0,0,0-.57-0.68A3.85,3.85,0,0,0,99.7,183v-1.33l5.35-.16h2.46Z" />
        <path class="cls-1"
            d="M125.7,184.42l0.25,0.06a9.43,9.43,0,0,1,2.93-2.42,7.28,7.28,0,0,1,3.26-.74,13.14,13.14,0,0,1,2.5.25V187h-3.54a4.49,4.49,0,0,0-.87-1.74,1.82,1.82,0,0,0-1.44-.61,2.12,2.12,0,0,0-.95.26,3.42,3.42,0,0,0-1,.74,3,3,0,0,0-.62,1,4.32,4.32,0,0,0-.24,1,14.5,14.5,0,0,0-.06,1.52v6.23a16.75,16.75,0,0,0,.14,2.6,2.18,2.18,0,0,0,.55,1.16,2.55,2.55,0,0,0,1.39.6V201h-9.63v-1.29a2.64,2.64,0,0,0,1.3-.66,2.24,2.24,0,0,0,.49-1.11,16.8,16.8,0,0,0,.13-2.56v-8q0-1.44,0-2.14a3.33,3.33,0,0,0-.23-1.11,1.61,1.61,0,0,0-.57-0.68,3.85,3.85,0,0,0-1.32-.46v-1.33l5.35-.16H126Z" />
        <path class="cls-1"
            d="M146.71,201.88a27.86,27.86,0,0,1-2.39,4.44,8.4,8.4,0,0,1-2.42,2.41,6.06,6.06,0,0,1-3.23.8,9.72,9.72,0,0,1-2.73-.37v-4.47h2.19a2.66,2.66,0,0,0,.63,1.26,1.54,1.54,0,0,0,1.06.34,2.3,2.3,0,0,0,1.34-.41,5.76,5.76,0,0,0,1.35-1.53,30.51,30.51,0,0,0,1.85-3.35h-1.11l-5.1-14.67a15.64,15.64,0,0,0-.87-2.12,2.78,2.78,0,0,0-.72-0.88,2.39,2.39,0,0,0-1-.42v-1.29h9.75v1.29a3.06,3.06,0,0,0-1.35.53,1.29,1.29,0,0,0-.43,1.05,8.07,8.07,0,0,0,.51,2.44l2.81,8.54L150,188a13.53,13.53,0,0,0,.59-1.65,5.24,5.24,0,0,0,.2-1.4,2,2,0,0,0-.47-1.36,2.14,2.14,0,0,0-1.33-.67v-1.29h7.6v1.31a3.05,3.05,0,0,0-.91.43,3.22,3.22,0,0,0-.64.66,10.43,10.43,0,0,0-.73,1.22q-0.43.81-1.17,2.45Z" />
        <path class="cls-1"
            d="M58,244.12a11.74,11.74,0,0,0,.1,1.83,2.22,2.22,0,0,0,.32.86,1.72,1.72,0,0,0,.64.54,4.88,4.88,0,0,0,1.3.37V249H49.88v-1.29a5.48,5.48,0,0,0,1.14-.42,1.44,1.44,0,0,0,.63-0.62,2.82,2.82,0,0,0,.26-1Q52,245,52,244.1V227.26q0-.92,0-1.54a2.62,2.62,0,0,0-.25-1,1.58,1.58,0,0,0-.62-0.63,4.81,4.81,0,0,0-1.16-.44v-1.29H61.22q4.94,0,7.4,1.77a6.25,6.25,0,0,1,2.46,5.44,8.56,8.56,0,0,1-1.15,4.51,7.25,7.25,0,0,1-3.34,2.9,13.3,13.3,0,0,1-5.47,1q-1.89,0-3.11-.08v6.25Zm0-8.46H59.7a7.22,7.22,0,0,0,3.11-.56,3.53,3.53,0,0,0,1.71-1.77,7.92,7.92,0,0,0,.56-3.26,7.8,7.8,0,0,0-.56-3.23,3.37,3.37,0,0,0-1.63-1.71,6.46,6.46,0,0,0-2.75-.51q-1.37,0-2.11,0v11Z" />
        <path class="cls-1"
            d="M82.71,249.31a11.27,11.27,0,0,1-5-1,7.17,7.17,0,0,1-3.25-3.22,12,12,0,0,1-1.17-5.63,12.86,12.86,0,0,1,.72-4.53,8.54,8.54,0,0,1,2-3.16,8,8,0,0,1,3.08-1.85,12.21,12.21,0,0,1,3.88-.6q4.73,0,7.13,2.49t2.4,7.29a12.25,12.25,0,0,1-1.19,5.69A7.63,7.63,0,0,1,88,248.2,11.54,11.54,0,0,1,82.71,249.31ZM79.27,239a15.85,15.85,0,0,0,.93,6.2,3,3,0,0,0,2.8,2.06,2.77,2.77,0,0,0,1.73-.53,3.62,3.62,0,0,0,1.11-1.52,9.05,9.05,0,0,0,.6-2.39,25.27,25.27,0,0,0,.18-3.13,16.17,16.17,0,0,0-.93-6.28,3,3,0,0,0-2.74-2.08,2.81,2.81,0,0,0-2.13.84,5.25,5.25,0,0,0-1.17,2.52A20.69,20.69,0,0,0,79.27,239Z" />
        <path class="cls-1"
            d="M109.37,246.66a12.56,12.56,0,0,1-3.12,2.06,7.54,7.54,0,0,1-3,.6,5.6,5.6,0,0,1-4.35-1.57A6.85,6.85,0,0,1,97.49,243V232.07H95.05v-1.35a4.42,4.42,0,0,0,1.76-.59,2.58,2.58,0,0,0,.88-1,6.68,6.68,0,0,0,.5-1.71,23.78,23.78,0,0,0,.28-2.64h4.67v4.88h5.57v2.44h-5.57v8.81a18.73,18.73,0,0,0,.21,3.26,3,3,0,0,0,.69,1.55,1.63,1.63,0,0,0,1.21.5,4.39,4.39,0,0,0,1-.1,3.64,3.64,0,0,0,.91-0.35,5.19,5.19,0,0,0,1-.72Z" />
        <path class="cls-1"
            d="M124,246.66a12.56,12.56,0,0,1-3.12,2.06,7.54,7.54,0,0,1-3,.6,5.6,5.6,0,0,1-4.35-1.57A6.85,6.85,0,0,1,112.1,243V232.07h-2.44v-1.35a4.42,4.42,0,0,0,1.76-.59,2.58,2.58,0,0,0,.88-1,6.68,6.68,0,0,0,.5-1.71,23.78,23.78,0,0,0,.28-2.64h4.67v4.88h5.57v2.44h-5.57v8.81a18.73,18.73,0,0,0,.21,3.26,3,3,0,0,0,.69,1.55,1.63,1.63,0,0,0,1.21.5,4.39,4.39,0,0,0,1-.1,3.64,3.64,0,0,0,.91-0.35,5.19,5.19,0,0,0,1-.72Z" />
        <path class="cls-1"
            d="M142.36,245.45a12.83,12.83,0,0,1-3.95,3,10.84,10.84,0,0,1-4.49.88q-4.55,0-6.85-2.49t-2.29-7.39A11.8,11.8,0,0,1,126,234a8.06,8.06,0,0,1,3.35-3.48,10.37,10.37,0,0,1,5-1.18,10.65,10.65,0,0,1,3.12.41,7.2,7.2,0,0,1,2.29,1.14,6.31,6.31,0,0,1,1.58,1.77,9.62,9.62,0,0,1,1.11,2.81,17.49,17.49,0,0,1,.41,3.93H130.48a8.86,8.86,0,0,0,1.26,5.21,4.4,4.4,0,0,0,3.78,1.67,6.24,6.24,0,0,0,2.68-.56,9.37,9.37,0,0,0,2.58-2Zm-5.27-8.18a11.44,11.44,0,0,0-.78-4.45,2.36,2.36,0,0,0-2.27-1.46,2.69,2.69,0,0,0-2.39,1.52,10.1,10.1,0,0,0-1.06,4.39h6.5Z" />
        <path class="cls-1"
            d="M153.2,232.42l0.25,0.06a9.43,9.43,0,0,1,2.93-2.42,7.28,7.28,0,0,1,3.26-.74,13.14,13.14,0,0,1,2.5.25V235h-3.54a4.49,4.49,0,0,0-.87-1.74,1.82,1.82,0,0,0-1.44-.61,2.12,2.12,0,0,0-.95.26,3.42,3.42,0,0,0-1,.74,3,3,0,0,0-.62,1,4.32,4.32,0,0,0-.24,1,14.5,14.5,0,0,0-.06,1.52v6.23a16.75,16.75,0,0,0,.14,2.6,2.18,2.18,0,0,0,.55,1.16,2.55,2.55,0,0,0,1.39.6V249h-9.63v-1.29a2.64,2.64,0,0,0,1.3-.66,2.24,2.24,0,0,0,.49-1.11,16.8,16.8,0,0,0,.13-2.56v-8q0-1.44,0-2.14a3.33,3.33,0,0,0-.23-1.11,1.61,1.61,0,0,0-.57-0.68,3.85,3.85,0,0,0-1.32-.46v-1.33l5.35-.16h2.46Z" />
        <path class="cls-19" d="M50.79,309V295.44H53V309H50.79Z" />
        <path class="cls-19"
            d="M65.38,309H63.2v-6.31a2.76,2.76,0,0,0-.48-1.77,1.84,1.84,0,0,0-1.52-.58,2.42,2.42,0,0,0-2,.82,4.51,4.51,0,0,0-.64,2.74V309H56.36V298.74h1.71l0.31,1.34h0.11A3,3,0,0,1,59.8,299a4.43,4.43,0,0,1,1.89-.4q3.69,0,3.69,3.76V309Z" />
        <path class="cls-19"
            d="M75.31,306.08a2.68,2.68,0,0,1-1.09,2.3,5.24,5.24,0,0,1-3.14.8,7.42,7.42,0,0,1-3.29-.62v-1.88a8.09,8.09,0,0,0,3.37.83q2,0,2-1.21a1,1,0,0,0-.22-0.65,2.66,2.66,0,0,0-.73-0.54,12.38,12.38,0,0,0-1.42-.63,6.58,6.58,0,0,1-2.4-1.37,2.55,2.55,0,0,1-.62-1.78,2.34,2.34,0,0,1,1.06-2,5,5,0,0,1,2.89-.73,8.19,8.19,0,0,1,3.42.73l-0.71,1.64a7.61,7.61,0,0,0-2.79-.69q-1.73,0-1.72,1a1,1,0,0,0,.45.82,10,10,0,0,0,2,.92,8.94,8.94,0,0,1,1.85.9,2.7,2.7,0,0,1,.85.94A2.73,2.73,0,0,1,75.31,306.08Z" />
        <path class="cls-19"
            d="M82.87,309.19a3.6,3.6,0,0,1-3-1.4H79.72q0.13,1.3.13,1.58v4.2H77.67V298.74h1.76q0.07,0.29.3,1.37h0.11a3.42,3.42,0,0,1,3.06-1.56,3.56,3.56,0,0,1,3,1.39,7.64,7.64,0,0,1,0,7.83A3.59,3.59,0,0,1,82.87,309.19Zm-0.53-8.85a2.27,2.27,0,0,0-1.9.76,4,4,0,0,0-.6,2.43v0.33a4.81,4.81,0,0,0,.59,2.71,2.21,2.21,0,0,0,1.94.84,2,2,0,0,0,1.74-.93,4.79,4.79,0,0,0,.61-2.64,4.63,4.63,0,0,0-.61-2.61A2,2,0,0,0,82.34,300.33Z" />
        <path class="cls-19"
            d="M89.38,296a1.2,1.2,0,0,1,.32-0.9,1.25,1.25,0,0,1,.91-0.32,1.22,1.22,0,0,1,.9.32,1.21,1.21,0,0,1,.32.9,1.18,1.18,0,0,1-.32.88,1.21,1.21,0,0,1-.9.32,1.23,1.23,0,0,1-.91-0.32A1.18,1.18,0,0,1,89.38,296Zm2.31,13H89.51V298.74h2.18V309Z" />
        <path class="cls-19"
            d="M100,298.55a5.28,5.28,0,0,1,1.09.09l-0.21,2a4.12,4.12,0,0,0-1-.11,2.79,2.79,0,0,0-2.12.85,3.09,3.09,0,0,0-.81,2.22V309H94.8V298.74h1.71l0.29,1.81h0.11a4.09,4.09,0,0,1,1.33-1.46A3.17,3.17,0,0,1,100,298.55Z" />
        <path class="cls-19"
            d="M107.47,309.19a5,5,0,0,1-3.74-1.4,5.3,5.3,0,0,1-1.35-3.85,5.81,5.81,0,0,1,1.25-4,4.32,4.32,0,0,1,3.44-1.44,4.23,4.23,0,0,1,3.21,1.23,4.72,4.72,0,0,1,1.18,3.4v1.18h-6.84a3.38,3.38,0,0,0,.81,2.3,2.81,2.81,0,0,0,2.14.8,7.93,7.93,0,0,0,1.69-.17,8.83,8.83,0,0,0,1.68-.57v1.77a6.66,6.66,0,0,1-1.62.54A9.86,9.86,0,0,1,107.47,309.19Zm-0.4-9a2.19,2.19,0,0,0-1.66.66,3.14,3.14,0,0,0-.75,1.92h4.66a2.84,2.84,0,0,0-.61-1.92A2.09,2.09,0,0,0,107.08,300.21Z" />
        <path class="cls-19"
            d="M117.4,309.19a3.57,3.57,0,0,1-3-1.39,7.63,7.63,0,0,1,0-7.83,3.61,3.61,0,0,1,3-1.41,3.54,3.54,0,0,1,3.08,1.49h0.11a13,13,0,0,1-.16-1.74v-3.74h2.19V309H121l-0.38-1.35h-0.1A3.48,3.48,0,0,1,117.4,309.19Zm0.58-1.76a2.37,2.37,0,0,0,2-.76,4,4,0,0,0,.63-2.45v-0.31a4.59,4.59,0,0,0-.63-2.75,2.34,2.34,0,0,0-2-.82,2,2,0,0,0-1.77.93,4.78,4.78,0,0,0-.62,2.66,4.65,4.65,0,0,0,.6,2.6A2,2,0,0,0,118,307.42Z" />
        <path class="cls-19"
            d="M136,298.55a3.56,3.56,0,0,1,3,1.39,7.66,7.66,0,0,1,0,7.83,4,4,0,0,1-6,0h-0.15l-0.4,1.21h-1.63V294.56h2.18V298c0,0.25,0,.63,0,1.13s0,0.82-.05,1h0.09A3.47,3.47,0,0,1,136,298.55Zm-0.57,1.78a2.22,2.22,0,0,0-1.9.77,4.52,4.52,0,0,0-.6,2.59v0.15a4.81,4.81,0,0,0,.59,2.71,2.21,2.21,0,0,0,1.94.84,2,2,0,0,0,1.76-.92,4.86,4.86,0,0,0,.6-2.65Q137.79,300.34,135.39,300.33Z" />
        <path class="cls-19"
            d="M141,298.74h2.38l2.09,5.82a11.09,11.09,0,0,1,.63,2.34h0.07a9.61,9.61,0,0,1,.31-1.24q0.22-.73,2.36-6.92h2.36l-4.39,11.62q-1.2,3.2-4,3.2a6.27,6.27,0,0,1-1.41-.16v-1.72a5.12,5.12,0,0,0,1.12.11,2.3,2.3,0,0,0,2.22-1.83l0.38-1Z" />
        <path class="cls-19" d="M51.38,331.8l5.36-11.62H49.69v-1.92h9.38v1.52l-5.33,12H51.38Z" />
        <path class="cls-19"
            d="M77.27,331.8H75v-6.11H68.79v6.11H66.57V318.24h2.22v5.55H75v-5.55h2.23V331.8Z" />
        <path class="cls-19"
            d="M87,331.8l-0.44-1.43H86.52A4.22,4.22,0,0,1,85,331.65a4.71,4.71,0,0,1-1.93.34,3.27,3.27,0,0,1-2.36-.82,3.05,3.05,0,0,1-.85-2.31,2.71,2.71,0,0,1,1.18-2.39,6.8,6.8,0,0,1,3.59-.88l1.77-.06V325a2.07,2.07,0,0,0-.46-1.47,1.87,1.87,0,0,0-1.42-.49,4.93,4.93,0,0,0-1.51.23,11.42,11.42,0,0,0-1.39.55l-0.71-1.56a7.57,7.57,0,0,1,1.83-.66,8.41,8.41,0,0,1,1.87-.23,4.44,4.44,0,0,1,3,.85,3.35,3.35,0,0,1,1,2.68v6.91H87Zm-3.25-1.48a2.7,2.7,0,0,0,1.91-.66,2.4,2.4,0,0,0,.72-1.86V326.9l-1.32.06a4.51,4.51,0,0,0-2.24.51,1.57,1.57,0,0,0-.7,1.41,1.37,1.37,0,0,0,.41,1.06A1.76,1.76,0,0,0,83.78,330.32Z" />
        <path class="cls-19"
            d="M96.84,321.35a5.26,5.26,0,0,1,1.08.09l-0.21,2a4.12,4.12,0,0,0-1-.11,2.79,2.79,0,0,0-2.12.85,3.08,3.08,0,0,0-.81,2.22v5.36H91.63V321.54h1.71l0.29,1.81h0.11a4.06,4.06,0,0,1,1.33-1.46A3.17,3.17,0,0,1,96.84,321.35Z" />
        <path class="cls-19"
            d="M105,321.35a5.28,5.28,0,0,1,1.09.09l-0.21,2a4.12,4.12,0,0,0-1-.11,2.79,2.79,0,0,0-2.12.85,3.08,3.08,0,0,0-.81,2.22v5.36H99.82V321.54h1.71l0.29,1.81h0.11a4.09,4.09,0,0,1,1.33-1.46A3.17,3.17,0,0,1,105,321.35Z" />
        <path class="cls-19"
            d="M106.46,321.54h2.38l2.09,5.82a11.16,11.16,0,0,1,.63,2.34h0.07a9.64,9.64,0,0,1,.31-1.24q0.22-.73,2.36-6.92h2.36l-4.39,11.63q-1.2,3.2-4,3.2a6.32,6.32,0,0,1-1.41-.16v-1.73a5.12,5.12,0,0,0,1.12.11,2.3,2.3,0,0,0,2.22-1.83l0.38-1Z" />
        <path class="cls-19"
            d="M132.35,322.34a4,4,0,0,1-1.39,3.26,6.13,6.13,0,0,1-4,1.13h-1.41v5.08h-2.22V318.24h3.9a5.91,5.91,0,0,1,3.81,1A3.73,3.73,0,0,1,132.35,322.34Zm-6.76,2.52h1.18a4.23,4.23,0,0,0,2.51-.59,2.16,2.16,0,0,0,.8-1.86,2.11,2.11,0,0,0-.71-1.74,3.53,3.53,0,0,0-2.23-.58h-1.54v4.77Z" />
        <path class="cls-19"
            d="M143.93,326.65a5.6,5.6,0,0,1-1.29,3.92A4.62,4.62,0,0,1,139,332a4.9,4.9,0,0,1-2.54-.65,4.29,4.29,0,0,1-1.7-1.87,6.37,6.37,0,0,1-.59-2.82,5.57,5.57,0,0,1,1.28-3.9,4.64,4.64,0,0,1,3.61-1.4,4.52,4.52,0,0,1,3.53,1.43A5.54,5.54,0,0,1,143.93,326.65Zm-7.47,0q0,3.55,2.63,3.55t2.6-3.55q0-3.52-2.62-3.52a2.23,2.23,0,0,0-2,.91A4.62,4.62,0,0,0,136.46,326.65Z" />
        <path class="cls-19"
            d="M150.25,330.22a5.32,5.32,0,0,0,1.6-.25v1.64a4.36,4.36,0,0,1-.93.26,6.51,6.51,0,0,1-1.18.11q-3.1,0-3.1-3.27v-5.53h-1.4v-1l1.5-.8,0.74-2.17h1.35v2.28h2.92v1.65h-2.92v5.49a1.54,1.54,0,0,0,.39,1.16A1.43,1.43,0,0,0,150.25,330.22Z" />
        <path class="cls-19"
            d="M157.72,330.22a5.32,5.32,0,0,0,1.6-.25v1.64a4.36,4.36,0,0,1-.93.26,6.51,6.51,0,0,1-1.18.11q-3.1,0-3.1-3.27v-5.53h-1.4v-1l1.5-.8,0.74-2.17h1.35v2.28h2.92v1.65h-2.92v5.49a1.54,1.54,0,0,0,.39,1.16A1.43,1.43,0,0,0,157.72,330.22Z" />
        <path class="cls-19"
            d="M165.85,332a5,5,0,0,1-3.74-1.4,5.3,5.3,0,0,1-1.35-3.84,5.81,5.81,0,0,1,1.25-4,4.33,4.33,0,0,1,3.44-1.44,4.23,4.23,0,0,1,3.21,1.23,4.71,4.71,0,0,1,1.18,3.39v1.18H163a3.38,3.38,0,0,0,.81,2.3,2.81,2.81,0,0,0,2.14.8,7.87,7.87,0,0,0,1.69-.17,8.9,8.9,0,0,0,1.68-.57v1.77a6.71,6.71,0,0,1-1.62.54A10,10,0,0,1,165.85,332Zm-0.4-9a2.19,2.19,0,0,0-1.66.66,3.13,3.13,0,0,0-.75,1.92h4.66a2.84,2.84,0,0,0-.61-1.92A2.09,2.09,0,0,0,165.45,323Z" />
        <path class="cls-19"
            d="M177.52,321.35a5.28,5.28,0,0,1,1.09.09l-0.21,2a4.12,4.12,0,0,0-1-.11,2.79,2.79,0,0,0-2.12.85,3.08,3.08,0,0,0-.81,2.22v5.36h-2.18V321.54H174l0.29,1.81h0.11a4.09,4.09,0,0,1,1.33-1.46A3.17,3.17,0,0,1,177.52,321.35Z" />
        <path class="cls-19"
            d="M55.71,346H53.2v8.61H51V346H49.32v-1L51,344.3v-0.67a3.74,3.74,0,0,1,.85-2.7,3.49,3.49,0,0,1,2.61-.88,7,7,0,0,1,2.26.38l-0.58,1.65a5.06,5.06,0,0,0-1.54-.26,1.26,1.26,0,0,0-1.08.46,2.33,2.33,0,0,0-.34,1.38v0.67h2.5V346Zm1.62-4.37a1.21,1.21,0,0,1,.32-0.9,1.25,1.25,0,0,1,.91-0.31,1.22,1.22,0,0,1,.89.31,1.21,1.21,0,0,1,.32.9,1.19,1.19,0,0,1-.32.88,1.21,1.21,0,0,1-.89.32,1.24,1.24,0,0,1-.91-0.32A1.19,1.19,0,0,1,57.32,341.62Zm2.31,13H57.45V344.34h2.18V354.6Z" />
        <path class="cls-19" d="M64.94,354.6H62.76V340.16h2.18V354.6Z" />
        <path class="cls-19"
            d="M76.7,354.6H74.51v-6.33a2.87,2.87,0,0,0-.45-1.76,1.64,1.64,0,0,0-1.39-.58,2.12,2.12,0,0,0-1.85.82,4.82,4.82,0,0,0-.59,2.73v5.11H68.05V344.34h1.71l0.31,1.34h0.11a2.85,2.85,0,0,1,1.24-1.13,4,4,0,0,1,1.79-.4,3.12,3.12,0,0,1,3.14,1.61h0.15a3.15,3.15,0,0,1,1.28-1.19,4.08,4.08,0,0,1,1.89-.43,3.45,3.45,0,0,1,2.68.93,4.11,4.11,0,0,1,.84,2.83v6.69H81v-6.33a2.84,2.84,0,0,0-.45-1.76,1.66,1.66,0,0,0-1.4-.58,2.16,2.16,0,0,0-1.86.79,4.09,4.09,0,0,0-.59,2.44v5.44Z" />
        <path class="cls-19"
            d="M93.11,351.68A2.68,2.68,0,0,1,92,354a5.24,5.24,0,0,1-3.14.8,7.41,7.41,0,0,1-3.29-.62v-1.88a8.08,8.08,0,0,0,3.37.83q2,0,2-1.21a1,1,0,0,0-.22-0.65,2.64,2.64,0,0,0-.73-0.54,12.88,12.88,0,0,0-1.42-.63,6.55,6.55,0,0,1-2.4-1.37,2.54,2.54,0,0,1-.63-1.78,2.34,2.34,0,0,1,1.06-2,5,5,0,0,1,2.89-.73,8.2,8.2,0,0,1,3.42.73l-0.71,1.64a7.62,7.62,0,0,0-2.79-.69q-1.73,0-1.73,1a1,1,0,0,0,.45.82,9.86,9.86,0,0,0,2,.92,9,9,0,0,1,1.85.9,2.69,2.69,0,0,1,.85.94A2.73,2.73,0,0,1,93.11,351.68Z" />
        <path class="cls-1"
            d="M28,248.13l-12,4.6v0.07q1.43-.13,3.4-0.13H28v1.46H14.44v-2.37l11.19-4.29v-0.07l-11.19-4.33V240.7H28v1.58H19.26q-1.5,0-3.27-.13v0.07l12,4.64v1.27Z" />
        <path class="cls-1"
            d="M22.91,228.44a5.6,5.6,0,0,1,3.88,1.25,4.41,4.41,0,0,1,1.4,3.46,4.57,4.57,0,0,1-.64,2.42,4.22,4.22,0,0,1-1.84,1.63,6.4,6.4,0,0,1-2.8.58A5.6,5.6,0,0,1,19,236.54a4.4,4.4,0,0,1-1.39-3.45,4.3,4.3,0,0,1,1.42-3.39A5.58,5.58,0,0,1,22.91,228.44Zm0,7.75a4.82,4.82,0,0,0,3-.78,3.09,3.09,0,0,0,0-4.59,4.8,4.8,0,0,0-3-.78,4.73,4.73,0,0,0-2.95.78,2.75,2.75,0,0,0-1,2.31,2.71,2.71,0,0,0,1,2.28A4.78,4.78,0,0,0,22.91,236.18Z" />
        <path class="cls-1"
            d="M28,223.51l-10.17,3.86v-1.65l6-2.19a28.51,28.51,0,0,1,2.75-.87v-0.07a20.88,20.88,0,0,1-2-.64q-1.55-.54-6.74-2.44v-1.65L28,221.71v1.8Z" />
        <path class="cls-1"
            d="M15.08,216.35a1,1,0,0,1-.77-0.26,1,1,0,0,1,0-1.29,1,1,0,0,1,.77-0.27,1,1,0,0,1,.78.27,0.9,0.9,0,0,1,.25.64,0.89,0.89,0,0,1-.25.65A1,1,0,0,1,15.08,216.35ZM28,214.68v1.54H17.83v-1.54H28Z" />
        <path class="cls-1"
            d="M28.19,207.12a4.67,4.67,0,0,1-1.37,3.56A5.31,5.31,0,0,1,23,212a5.9,5.9,0,0,1-3.91-1.21,4,4,0,0,1-1.45-3.25,3.83,3.83,0,0,1,1.26-3,4.82,4.82,0,0,1,3.32-1.11h1v7a4,4,0,0,0,2.72-.91,3.13,3.13,0,0,0,.93-2.42,8.2,8.2,0,0,0-.69-3.25h1.37a8.15,8.15,0,0,1,.5,1.54A8.65,8.65,0,0,1,28.19,207.12Zm-9.25.42a2.51,2.51,0,0,0,.8,2,3.68,3.68,0,0,0,2.21.86V205a3.39,3.39,0,0,0-2.23.65A2.29,2.29,0,0,0,18.94,207.53Z" />
        <path class="cls-1" d="M23.61,201.61H22.2v-4.55h1.41v4.55Z" />
        <path class="cls-1"
            d="M25.23,188.08a2.55,2.55,0,0,1,2.19,1.06,5,5,0,0,1,.77,3,6.44,6.44,0,0,1-.64,3.15H26.12a7.64,7.64,0,0,0,.58-1.57,6.55,6.55,0,0,0,.21-1.62,3.67,3.67,0,0,0-.38-1.86,1.33,1.33,0,0,0-2.19-.13,8.11,8.11,0,0,0-1,2,11,11,0,0,1-.92,2,2.77,2.77,0,0,1-.9.89,2.34,2.34,0,0,1-1.2.29,2.28,2.28,0,0,1-2-1,4.72,4.72,0,0,1-.72-2.77,8.12,8.12,0,0,1,.67-3.21l1.25,0.55a7.39,7.39,0,0,0-.63,2.77,3.2,3.2,0,0,0,.34,1.65,1.06,1.06,0,0,0,.95.56,1.15,1.15,0,0,0,.7-0.21,2.06,2.06,0,0,0,.55-0.67,15.17,15.17,0,0,0,.75-1.78,6.64,6.64,0,0,1,1.33-2.45A2.34,2.34,0,0,1,25.23,188.08Z" />
        <path class="cls-1"
            d="M28.19,181.28a4.67,4.67,0,0,1-1.37,3.56,5.31,5.31,0,0,1-3.81,1.3,5.9,5.9,0,0,1-3.91-1.21,4,4,0,0,1-1.45-3.25,3.83,3.83,0,0,1,1.26-3,4.82,4.82,0,0,1,3.32-1.11h1v7a4,4,0,0,0,2.72-.91,3.13,3.13,0,0,0,.93-2.42,8.2,8.2,0,0,0-.69-3.25h1.37a8.15,8.15,0,0,1,.5,1.54A8.65,8.65,0,0,1,28.19,181.28Zm-9.25.42a2.51,2.51,0,0,0,.8,2,3.68,3.68,0,0,0,2.21.86v-5.32a3.39,3.39,0,0,0-2.23.65A2.29,2.29,0,0,0,18.94,181.7Z" />
        <path class="cls-1"
            d="M26.91,171.63a5,5,0,0,0-.06-0.79,4.92,4.92,0,0,0-.13-0.6h1.18a2.84,2.84,0,0,1,.2.74,5.53,5.53,0,0,1,.08.88q0,3-3.11,3H19v1.46H18.29l-0.64-1.46-2.17-.65v-0.89h2.36v-3H19v3h6a2.06,2.06,0,0,0,1.41-.44A1.51,1.51,0,0,0,26.91,171.63Z" />
        <rect class="cls-1" x="39" y="168" width="1" height="90" />
    </g>
    <g id="frame">
        <path class="cls-20" d="M792,8V602H8V8H792m8-8H0V610H800V0h0Z" />
    </g>
</svg>